<svg xmlns="http://www.w3.org/2000/svg" width="57" height="101.5" viewBox="0 0 57 101.5"><title>Artboard 1</title><path d="M21,79.57a2.36,2.36,0,0,0,4-1.72V10.63c0-1.49-.49-3.28.15-4.42a10.58,10.58,0,0,1,2.42-2.69,2.37,2.37,0,0,1,3.2.08,11.16,11.16,0,0,1,2.09,2.49c.56,1,.14,2.6.14,3.93V77.83a2.36,2.36,0,0,0,3.94,1.76c2.76-2.5,5.31-4.8,7.84-7.12,2-1.89,4.24-3.84,6.86-1.24,2.87,2.85.76,5.07-1.45,7.11-6.44,5.94-12.87,11.89-19.6,18.12a2.38,2.38,0,0,1-3.21,0C20.26,89.87,13.29,83.55,6.62,76.93c-.68-.67-.59-2.13-.49-3.59a2.38,2.38,0,0,1,2.11-2.19c1.42-.15,2.83-.29,3.64.34C15,73.88,17.83,76.57,21,79.57Z" fill="#2c2c2c"/></svg>