<svg xmlns="http://www.w3.org/2000/svg" width="153" height="146" viewBox="0 0 153 146"><title>Artboard 1</title><path d="M92,6.17c3.5,0,7,0,10.49,0,2.76,0,4.47,1.53,4.51,4.28s-1.88,3.71-4.22,4.09a10.94,10.94,0,0,1-2.49.1c-2.54-.13-4.79-.05-4.35,3.54.35,2.84-1.29,6.08,4,6.76,43.35,5.57,65,57,39,92.12a58.29,58.29,0,0,1-99.42-8.52,24.32,24.32,0,0,1-1.07-2.25c-1-2.64-1.69-5.48,1.6-6.83s4.72.87,6,3.57c10.31,21.32,31.38,32.8,53.38,29.2,22.79-3.73,39.34-21.39,42.2-45,2.33-19.24-8.75-39.51-26.88-49.16C97.3,28.81,74.92,31.1,60.29,43.64c-2,1.74-4,3.57-5.82,5.47-2,2-4.35,3-6.55.84s-1.36-4.49.55-6.6c9.16-10.12,20.46-16.55,34-18.25,4.86-.61,4.83-2.89,5-6.51.18-4.21-2.3-4-5.08-3.95-3,0-6.11-.53-6-4.31s3-4.25,6.14-4.18S88.79,6.16,92,6.17Z"/><path d="M89.55,94.89c-1.56-.06-2.21-1.12-3-1.94-3.68-3.84-7.3-7.75-11-11.56-2.19-2.24-2.78-4.78-.63-7.06,2.44-2.6,5-1.58,7.4.63s4.31,6.58,7.22,6.29c2.69-.27,5.1-3.87,7.53-6.12q8.6-8,17.07-16.08c2.54-2.43,5.29-4,8.17-1s.85,5.5-1.5,7.7Q106,79.6,91.29,93.4C90.7,94,90.05,94.46,89.55,94.89Z"/><path d="M34.41,61.37c-7.8,0-15.61,0-23.42,0-2.9,0-5.63-.3-5.74-3.88s2.52-4.23,5.46-4.23q23.43,0,46.84,0c2.94,0,6.22.39,6.08,4.21s-3.25,4-6.29,4c-7.65-.08-15.29,0-22.93,0Z"/><path d="M37.48,79c-6.48,0-12.95,0-19.42,0-3.07,0-6-.35-6-4.19,0-3.62,2.83-3.93,5.68-3.93,13.27,0,26.55,0,39.83,0,2.94,0,6.15.26,6,4.16s-3.17,4-6.21,4C50.75,79,44.12,79,37.48,79Z"/><path d="M41.75,96.68c-5.32,0-10.64-.06-16,0-2.87,0-5.21-.91-5.36-3.91-.17-3.38,2.31-4.44,5.35-4.43,10.64,0,21.28,0,31.92,0,2.76,0,5.81.32,5.89,3.86s-2.67,4.47-5.88,4.41c-5.32-.09-10.64,0-16,0Z"/></svg>