<svg width="230" height="116" viewBox="0 0 230 116" fill="none" xmlns="http://www.w3.org/2000/svg">
<line x1="105" y1="60" x2="105" y2="2" stroke="#D27984" stroke-width="2"/>
<circle cx="104.5" cy="3.5" r="3.5" transform="rotate(-180 104.5 3.5)" fill="#B45054"/>
<rect x="1" y="47" width="228" height="68" rx="6" fill="#F9E6E9" stroke="#D27984" stroke-width="2"/>
<path d="M12.5078 63.5781H15.8984C17.4714 63.5781 18.6068 63.8073 19.3047 64.2656C20.0078 64.724 20.3594 65.4479 20.3594 66.4375C20.3594 67.1042 20.1875 67.6589 19.8438 68.1016C19.5 68.5443 19.0052 68.8229 18.3594 68.9375V69.0156C19.1615 69.1667 19.75 69.4661 20.125 69.9141C20.5052 70.3568 20.6953 70.9583 20.6953 71.7188C20.6953 72.7448 20.3359 73.5495 19.6172 74.1328C18.9036 74.7109 17.9089 75 16.6328 75H12.5078V63.5781ZM14.375 68.2969H16.1719C16.9531 68.2969 17.5234 68.1745 17.8828 67.9297C18.2422 67.6797 18.4219 67.2578 18.4219 66.6641C18.4219 66.1276 18.2266 65.7396 17.8359 65.5C17.4505 65.2604 16.8359 65.1406 15.9922 65.1406H14.375V68.2969ZM14.375 69.8125V73.4297H16.3594C17.1406 73.4297 17.7292 73.2812 18.125 72.9844C18.526 72.6823 18.7266 72.2083 18.7266 71.5625C18.7266 70.9688 18.5234 70.5286 18.1172 70.2422C17.7109 69.9557 17.0938 69.8125 16.2656 69.8125H14.375ZM27.2578 66.2031C27.6276 66.2031 27.9323 66.2292 28.1719 66.2812L27.9922 67.9922C27.7318 67.9297 27.4609 67.8984 27.1797 67.8984C26.4453 67.8984 25.849 68.138 25.3906 68.6172C24.9375 69.0964 24.7109 69.7188 24.7109 70.4844V75H22.875V66.3594H24.3125L24.5547 67.8828H24.6484C24.9349 67.3672 25.3073 66.9583 25.7656 66.6562C26.2292 66.3542 26.7266 66.2031 27.2578 66.2031ZM35.1875 75L34.8203 73.7969H34.7578C34.3411 74.3229 33.9219 74.6823 33.5 74.875C33.0781 75.0625 32.5365 75.1562 31.875 75.1562C31.026 75.1562 30.362 74.9271 29.8828 74.4688C29.4089 74.0104 29.1719 73.362 29.1719 72.5234C29.1719 71.6328 29.5026 70.9609 30.1641 70.5078C30.8255 70.0547 31.8333 69.8073 33.1875 69.7656L34.6797 69.7188V69.2578C34.6797 68.7057 34.5495 68.2943 34.2891 68.0234C34.0339 67.7474 33.6354 67.6094 33.0938 67.6094C32.651 67.6094 32.2266 67.6745 31.8203 67.8047C31.4141 67.9349 31.0234 68.0885 30.6484 68.2656L30.0547 66.9531C30.5234 66.7083 31.0365 66.5234 31.5938 66.3984C32.151 66.2682 32.6771 66.2031 33.1719 66.2031C34.2708 66.2031 35.099 66.4427 35.6562 66.9219C36.2188 67.401 36.5 68.1536 36.5 69.1797V75H35.1875ZM32.4531 73.75C33.1198 73.75 33.6536 73.5651 34.0547 73.1953C34.4609 72.8203 34.6641 72.2969 34.6641 71.625V70.875L33.5547 70.9219C32.6901 70.9531 32.0599 71.099 31.6641 71.3594C31.2734 71.6146 31.0781 72.0078 31.0781 72.5391C31.0781 72.9245 31.1927 73.224 31.4219 73.4375C31.651 73.6458 31.9948 73.75 32.4531 73.75ZM46.6641 75H44.8203V69.6875C44.8203 69.0208 44.6849 68.5234 44.4141 68.1953C44.1484 67.8672 43.724 67.7031 43.1406 67.7031C42.3646 67.7031 41.7969 67.9323 41.4375 68.3906C41.0781 68.849 40.8984 69.6172 40.8984 70.6953V75H39.0625V66.3594H40.5L40.7578 67.4922H40.8516C41.112 67.0807 41.4818 66.763 41.9609 66.5391C42.4401 66.3151 42.9714 66.2031 43.5547 66.2031C45.6276 66.2031 46.6641 67.2578 46.6641 69.3672V75ZM52.1328 75.1562C51.0547 75.1562 50.2135 74.7656 49.6094 73.9844C49.0052 73.2031 48.7031 72.1068 48.7031 70.6953C48.7031 69.2786 49.0078 68.1771 49.6172 67.3906C50.2318 66.599 51.0807 66.2031 52.1641 66.2031C53.2995 66.2031 54.1641 66.6224 54.7578 67.4609H54.8516C54.763 66.8411 54.7188 66.3516 54.7188 65.9922V62.8438H56.5625V75H55.125L54.8047 73.8672H54.7188C54.1302 74.7266 53.2682 75.1562 52.1328 75.1562ZM52.625 73.6719C53.3802 73.6719 53.9297 73.4609 54.2734 73.0391C54.6172 72.612 54.7943 71.9219 54.8047 70.9688V70.7109C54.8047 69.6224 54.6276 68.849 54.2734 68.3906C53.9193 67.9323 53.3646 67.7031 52.6094 67.7031C51.9635 67.7031 51.4661 67.9661 51.1172 68.4922C50.7682 69.013 50.5938 69.7578 50.5938 70.7266C50.5938 71.6849 50.763 72.4167 51.1016 72.9219C51.4401 73.4219 51.9479 73.6719 52.625 73.6719ZM64.5938 75L64.2266 73.7969H64.1641C63.7474 74.3229 63.3281 74.6823 62.9062 74.875C62.4844 75.0625 61.9427 75.1562 61.2812 75.1562C60.4323 75.1562 59.7682 74.9271 59.2891 74.4688C58.8151 74.0104 58.5781 73.362 58.5781 72.5234C58.5781 71.6328 58.9089 70.9609 59.5703 70.5078C60.2318 70.0547 61.2396 69.8073 62.5938 69.7656L64.0859 69.7188V69.2578C64.0859 68.7057 63.9557 68.2943 63.6953 68.0234C63.4401 67.7474 63.0417 67.6094 62.5 67.6094C62.0573 67.6094 61.6328 67.6745 61.2266 67.8047C60.8203 67.9349 60.4297 68.0885 60.0547 68.2656L59.4609 66.9531C59.9297 66.7083 60.4427 66.5234 61 66.3984C61.5573 66.2682 62.0833 66.2031 62.5781 66.2031C63.6771 66.2031 64.5052 66.4427 65.0625 66.9219C65.625 67.401 65.9062 68.1536 65.9062 69.1797V75H64.5938ZM61.8594 73.75C62.526 73.75 63.0599 73.5651 63.4609 73.1953C63.8672 72.8203 64.0703 72.2969 64.0703 71.625V70.875L62.9609 70.9219C62.0964 70.9531 61.4661 71.099 61.0703 71.3594C60.6797 71.6146 60.4844 72.0078 60.4844 72.5391C60.4844 72.9245 60.599 73.224 60.8281 73.4375C61.0573 73.6458 61.401 73.75 61.8594 73.75ZM72.8828 66.2031C73.9609 66.2031 74.7995 66.5938 75.3984 67.375C76.0026 68.1562 76.3047 69.2526 76.3047 70.6641C76.3047 72.0807 76 73.1849 75.3906 73.9766C74.7812 74.763 73.9349 75.1562 72.8516 75.1562C71.7578 75.1562 70.9089 74.763 70.3047 73.9766H70.1797L69.8438 75H68.4688V62.8438H70.3047V65.7344C70.3047 65.9479 70.2943 66.2656 70.2734 66.6875C70.2526 67.1094 70.237 67.3776 70.2266 67.4922H70.3047C70.888 66.6328 71.7474 66.2031 72.8828 66.2031ZM72.4062 67.7031C71.6667 67.7031 71.1328 67.9219 70.8047 68.3594C70.4818 68.7917 70.3151 69.5182 70.3047 70.5391V70.6641C70.3047 71.7161 70.4714 72.4792 70.8047 72.9531C71.138 73.4219 71.6823 73.6562 72.4375 73.6562C73.0885 73.6562 73.5807 73.3984 73.9141 72.8828C74.2526 72.3672 74.4219 71.6224 74.4219 70.6484C74.4219 68.6849 73.75 67.7031 72.4062 67.7031ZM80.2734 75H78.4375V62.8438H80.2734V75ZM86.6797 75.1562C85.3359 75.1562 84.2839 74.7656 83.5234 73.9844C82.7682 73.1979 82.3906 72.1172 82.3906 70.7422C82.3906 69.3307 82.7422 68.2214 83.4453 67.4141C84.1484 66.6068 85.1146 66.2031 86.3438 66.2031C87.4844 66.2031 88.3854 66.5495 89.0469 67.2422C89.7083 67.9349 90.0391 68.888 90.0391 70.1016V71.0938H84.2812C84.3073 71.9323 84.5339 72.5781 84.9609 73.0312C85.388 73.4792 85.9896 73.7031 86.7656 73.7031C87.276 73.7031 87.75 73.6562 88.1875 73.5625C88.6302 73.4635 89.1042 73.3021 89.6094 73.0781V74.5703C89.1615 74.7839 88.7083 74.9349 88.25 75.0234C87.7917 75.112 87.2682 75.1562 86.6797 75.1562ZM86.3438 67.5938C85.7604 67.5938 85.2917 67.7786 84.9375 68.1484C84.5885 68.5182 84.3802 69.0573 84.3125 69.7656H88.2344C88.224 69.0521 88.0521 68.513 87.7188 68.1484C87.3854 67.7786 86.9271 67.5938 86.3438 67.5938ZM103.883 75H102.039V69.6875C102.039 69.0208 101.904 68.5234 101.633 68.1953C101.367 67.8672 100.943 67.7031 100.359 67.7031C99.5885 67.7031 99.0208 67.9349 98.6562 68.3984C98.2969 68.8568 98.1172 69.6276 98.1172 70.7109V75H96.2812V62.8438H98.1172V65.9297C98.1172 66.4245 98.0859 66.9531 98.0234 67.5156H98.1406C98.3906 67.099 98.737 66.776 99.1797 66.5469C99.6276 66.3177 100.148 66.2031 100.742 66.2031C102.836 66.2031 103.883 67.2578 103.883 69.3672V75ZM110.211 75.1562C108.867 75.1562 107.815 74.7656 107.055 73.9844C106.299 73.1979 105.922 72.1172 105.922 70.7422C105.922 69.3307 106.273 68.2214 106.977 67.4141C107.68 66.6068 108.646 66.2031 109.875 66.2031C111.016 66.2031 111.917 66.5495 112.578 67.2422C113.24 67.9349 113.57 68.888 113.57 70.1016V71.0938H107.812C107.839 71.9323 108.065 72.5781 108.492 73.0312C108.919 73.4792 109.521 73.7031 110.297 73.7031C110.807 73.7031 111.281 73.6562 111.719 73.5625C112.161 73.4635 112.635 73.3021 113.141 73.0781V74.5703C112.693 74.7839 112.24 74.9349 111.781 75.0234C111.323 75.112 110.799 75.1562 110.211 75.1562ZM109.875 67.5938C109.292 67.5938 108.823 67.7786 108.469 68.1484C108.12 68.5182 107.911 69.0573 107.844 69.7656H111.766C111.755 69.0521 111.583 68.513 111.25 68.1484C110.917 67.7786 110.458 67.5938 109.875 67.5938ZM121.062 75L120.695 73.7969H120.633C120.216 74.3229 119.797 74.6823 119.375 74.875C118.953 75.0625 118.411 75.1562 117.75 75.1562C116.901 75.1562 116.237 74.9271 115.758 74.4688C115.284 74.0104 115.047 73.362 115.047 72.5234C115.047 71.6328 115.378 70.9609 116.039 70.5078C116.701 70.0547 117.708 69.8073 119.062 69.7656L120.555 69.7188V69.2578C120.555 68.7057 120.424 68.2943 120.164 68.0234C119.909 67.7474 119.51 67.6094 118.969 67.6094C118.526 67.6094 118.102 67.6745 117.695 67.8047C117.289 67.9349 116.898 68.0885 116.523 68.2656L115.93 66.9531C116.398 66.7083 116.911 66.5234 117.469 66.3984C118.026 66.2682 118.552 66.2031 119.047 66.2031C120.146 66.2031 120.974 66.4427 121.531 66.9219C122.094 67.401 122.375 68.1536 122.375 69.1797V75H121.062ZM118.328 73.75C118.995 73.75 119.529 73.5651 119.93 73.1953C120.336 72.8203 120.539 72.2969 120.539 71.625V70.875L119.43 70.9219C118.565 70.9531 117.935 71.099 117.539 71.3594C117.148 71.6146 116.953 72.0078 116.953 72.5391C116.953 72.9245 117.068 73.224 117.297 73.4375C117.526 73.6458 117.87 73.75 118.328 73.75ZM127.852 75.1562C126.773 75.1562 125.932 74.7656 125.328 73.9844C124.724 73.2031 124.422 72.1068 124.422 70.6953C124.422 69.2786 124.727 68.1771 125.336 67.3906C125.951 66.599 126.799 66.2031 127.883 66.2031C129.018 66.2031 129.883 66.6224 130.477 67.4609H130.57C130.482 66.8411 130.438 66.3516 130.438 65.9922V62.8438H132.281V75H130.844L130.523 73.8672H130.438C129.849 74.7266 128.987 75.1562 127.852 75.1562ZM128.344 73.6719C129.099 73.6719 129.648 73.4609 129.992 73.0391C130.336 72.612 130.513 71.9219 130.523 70.9688V70.7109C130.523 69.6224 130.346 68.849 129.992 68.3906C129.638 67.9323 129.083 67.7031 128.328 67.7031C127.682 67.7031 127.185 67.9661 126.836 68.4922C126.487 69.013 126.312 69.7578 126.312 70.7266C126.312 71.6849 126.482 72.4167 126.82 72.9219C127.159 73.4219 127.667 73.6719 128.344 73.6719ZM138.68 75.1562C137.336 75.1562 136.284 74.7656 135.523 73.9844C134.768 73.1979 134.391 72.1172 134.391 70.7422C134.391 69.3307 134.742 68.2214 135.445 67.4141C136.148 66.6068 137.115 66.2031 138.344 66.2031C139.484 66.2031 140.385 66.5495 141.047 67.2422C141.708 67.9349 142.039 68.888 142.039 70.1016V71.0938H136.281C136.307 71.9323 136.534 72.5781 136.961 73.0312C137.388 73.4792 137.99 73.7031 138.766 73.7031C139.276 73.7031 139.75 73.6562 140.188 73.5625C140.63 73.4635 141.104 73.3021 141.609 73.0781V74.5703C141.161 74.7839 140.708 74.9349 140.25 75.0234C139.792 75.112 139.268 75.1562 138.68 75.1562ZM138.344 67.5938C137.76 67.5938 137.292 67.7786 136.938 68.1484C136.589 68.5182 136.38 69.0573 136.312 69.7656H140.234C140.224 69.0521 140.052 68.513 139.719 68.1484C139.385 67.7786 138.927 67.5938 138.344 67.5938ZM148.508 66.2031C148.878 66.2031 149.182 66.2292 149.422 66.2812L149.242 67.9922C148.982 67.9297 148.711 67.8984 148.43 67.8984C147.695 67.8984 147.099 68.138 146.641 68.6172C146.188 69.0964 145.961 69.7188 145.961 70.4844V75H144.125V66.3594H145.562L145.805 67.8828H145.898C146.185 67.3672 146.557 66.9583 147.016 66.6562C147.479 66.3542 147.977 66.2031 148.508 66.2031ZM156.836 72.5391C156.836 73.3828 156.529 74.0312 155.914 74.4844C155.299 74.9323 154.419 75.1562 153.273 75.1562C152.122 75.1562 151.198 74.9818 150.5 74.6328V73.0469C151.516 73.5156 152.461 73.75 153.336 73.75C154.466 73.75 155.031 73.4089 155.031 72.7266C155.031 72.5078 154.969 72.3255 154.844 72.1797C154.719 72.0339 154.513 71.8828 154.227 71.7266C153.94 71.5703 153.542 71.3932 153.031 71.1953C152.036 70.8099 151.362 70.4245 151.008 70.0391C150.659 69.6536 150.484 69.1536 150.484 68.5391C150.484 67.7995 150.781 67.2266 151.375 66.8203C151.974 66.4089 152.786 66.2031 153.812 66.2031C154.828 66.2031 155.789 66.4089 156.695 66.8203L156.102 68.2031C155.169 67.8177 154.385 67.625 153.75 67.625C152.781 67.625 152.297 67.901 152.297 68.4531C152.297 68.724 152.422 68.9531 152.672 69.1406C152.927 69.3281 153.479 69.5859 154.328 69.9141C155.042 70.1901 155.56 70.4427 155.883 70.6719C156.206 70.901 156.445 71.1667 156.602 71.4688C156.758 71.7656 156.836 72.1224 156.836 72.5391Z" fill="#81363E"/>
<path d="M16.7969 100L13.4062 91.1406H13.3516C13.4154 91.8424 13.4473 92.6764 13.4473 93.6426V100H12.374V90.0059H14.124L17.2891 98.25H17.3438L20.5361 90.0059H22.2725V100H21.1104V93.5605C21.1104 92.8223 21.1423 92.0202 21.2061 91.1543H21.1514L17.7334 100H16.7969ZM31.3164 96.2471C31.3164 97.4684 31.0088 98.4232 30.3936 99.1113C29.7783 99.7949 28.9284 100.137 27.8438 100.137C27.1738 100.137 26.5791 99.9795 26.0596 99.665C25.54 99.3506 25.139 98.8994 24.8564 98.3115C24.5739 97.7236 24.4326 97.0355 24.4326 96.2471C24.4326 95.0257 24.738 94.0755 25.3486 93.3965C25.9593 92.7129 26.807 92.3711 27.8916 92.3711C28.9398 92.3711 29.7715 92.7197 30.3867 93.417C31.0065 94.1143 31.3164 95.0576 31.3164 96.2471ZM25.6084 96.2471C25.6084 97.2041 25.7998 97.9333 26.1826 98.4346C26.5654 98.9359 27.1283 99.1865 27.8711 99.1865C28.6139 99.1865 29.1768 98.9382 29.5596 98.4414C29.9469 97.9401 30.1406 97.2087 30.1406 96.2471C30.1406 95.2946 29.9469 94.5723 29.5596 94.0801C29.1768 93.5833 28.6094 93.335 27.8574 93.335C27.1146 93.335 26.554 93.5788 26.1758 94.0664C25.7975 94.554 25.6084 95.2809 25.6084 96.2471ZM36.7305 92.3711C37.0632 92.3711 37.3617 92.3984 37.626 92.4531L37.4688 93.5059C37.1589 93.4375 36.8854 93.4033 36.6484 93.4033C36.0423 93.4033 35.5228 93.6494 35.0898 94.1416C34.6615 94.6338 34.4473 95.2467 34.4473 95.9805V100H33.3125V92.5078H34.249L34.3789 93.8955H34.4336C34.7116 93.4079 35.0465 93.0319 35.4385 92.7676C35.8304 92.5033 36.2611 92.3711 36.7305 92.3711ZM42.1924 100.137C41.085 100.137 40.21 99.7995 39.5674 99.125C38.9294 98.4505 38.6104 97.514 38.6104 96.3154C38.6104 95.1077 38.9066 94.1484 39.499 93.4375C40.096 92.7266 40.8958 92.3711 41.8984 92.3711C42.8372 92.3711 43.5801 92.681 44.127 93.3008C44.6738 93.916 44.9473 94.7295 44.9473 95.7412V96.459H39.7861C39.8089 97.3385 40.0299 98.0062 40.4492 98.4619C40.873 98.9176 41.4678 99.1455 42.2334 99.1455C43.04 99.1455 43.8376 98.9769 44.626 98.6396V99.6514C44.2249 99.8245 43.8444 99.9476 43.4844 100.021C43.1289 100.098 42.6982 100.137 42.1924 100.137ZM41.8848 93.3213C41.2832 93.3213 40.8024 93.5173 40.4424 93.9092C40.0869 94.3011 39.8773 94.8434 39.8135 95.5361H43.7305C43.7305 94.8206 43.571 94.2738 43.252 93.8955C42.9329 93.5127 42.4772 93.3213 41.8848 93.3213ZM53.5195 100.137C52.4349 100.137 51.5941 99.804 50.9971 99.1387C50.4046 98.4688 50.1084 97.5231 50.1084 96.3018C50.1084 95.0485 50.4092 94.0801 51.0107 93.3965C51.6169 92.7129 52.4782 92.3711 53.5947 92.3711C53.9548 92.3711 54.3148 92.4098 54.6748 92.4873C55.0348 92.5648 55.3174 92.6559 55.5225 92.7607L55.1738 93.7246C54.9232 93.6243 54.6497 93.5423 54.3535 93.4785C54.0573 93.4102 53.7952 93.376 53.5674 93.376C52.0452 93.376 51.2842 94.3467 51.2842 96.2881C51.2842 97.2087 51.4688 97.915 51.8379 98.4072C52.2116 98.8994 52.763 99.1455 53.4922 99.1455C54.1165 99.1455 54.7568 99.0111 55.4131 98.7422V99.7471C54.9118 100.007 54.2806 100.137 53.5195 100.137ZM63.6641 96.2471C63.6641 97.4684 63.3564 98.4232 62.7412 99.1113C62.126 99.7949 61.276 100.137 60.1914 100.137C59.5215 100.137 58.9268 99.9795 58.4072 99.665C57.8877 99.3506 57.4867 98.8994 57.2041 98.3115C56.9215 97.7236 56.7803 97.0355 56.7803 96.2471C56.7803 95.0257 57.0856 94.0755 57.6963 93.3965C58.307 92.7129 59.1546 92.3711 60.2393 92.3711C61.2874 92.3711 62.1191 92.7197 62.7344 93.417C63.3542 94.1143 63.6641 95.0576 63.6641 96.2471ZM57.9561 96.2471C57.9561 97.2041 58.1475 97.9333 58.5303 98.4346C58.9131 98.9359 59.4759 99.1865 60.2188 99.1865C60.9616 99.1865 61.5244 98.9382 61.9072 98.4414C62.2946 97.9401 62.4883 97.2087 62.4883 96.2471C62.4883 95.2946 62.2946 94.5723 61.9072 94.0801C61.5244 93.5833 60.957 93.335 60.2051 93.335C59.4622 93.335 58.9017 93.5788 58.5234 94.0664C58.1452 94.554 57.9561 95.2809 57.9561 96.2471ZM70.7871 100V95.1533C70.7871 94.5426 70.6481 94.0869 70.3701 93.7861C70.0921 93.4854 69.6569 93.335 69.0645 93.335C68.2806 93.335 67.7064 93.5469 67.3418 93.9707C66.9772 94.3945 66.7949 95.0941 66.7949 96.0693V100H65.6602V92.5078H66.583L66.7676 93.5332H66.8223C67.0547 93.1641 67.3805 92.8792 67.7998 92.6787C68.2191 92.4736 68.6862 92.3711 69.2012 92.3711C70.1035 92.3711 70.7826 92.5898 71.2383 93.0273C71.694 93.4603 71.9219 94.1553 71.9219 95.1123V100H70.7871ZM79.0928 97.9561C79.0928 98.6533 78.833 99.1911 78.3135 99.5693C77.7939 99.9476 77.0648 100.137 76.126 100.137C75.1325 100.137 74.3577 99.9795 73.8018 99.665V98.6123C74.1618 98.7946 74.5469 98.9382 74.957 99.043C75.3717 99.1478 75.7705 99.2002 76.1533 99.2002C76.7458 99.2002 77.2015 99.1068 77.5205 98.9199C77.8395 98.7285 77.999 98.4391 77.999 98.0518C77.999 97.7601 77.8714 97.5117 77.6162 97.3066C77.3656 97.097 76.8734 96.8509 76.1396 96.5684C75.4424 96.3086 74.9456 96.083 74.6494 95.8916C74.3577 95.6956 74.139 95.4746 73.9932 95.2285C73.8519 94.9824 73.7812 94.6885 73.7812 94.3467C73.7812 93.736 74.0296 93.2552 74.5264 92.9043C75.0231 92.5488 75.7044 92.3711 76.5703 92.3711C77.377 92.3711 78.1654 92.5352 78.9355 92.8633L78.5322 93.7861C77.7803 93.4762 77.099 93.3213 76.4883 93.3213C75.9505 93.3213 75.5449 93.4056 75.2715 93.5742C74.998 93.7428 74.8613 93.9753 74.8613 94.2715C74.8613 94.472 74.9115 94.6429 75.0117 94.7842C75.1165 94.9255 75.2829 95.0599 75.5107 95.1875C75.7386 95.3151 76.1761 95.4997 76.8232 95.7412C77.7119 96.0648 78.3112 96.3906 78.6211 96.7188C78.9355 97.0469 79.0928 97.4593 79.0928 97.9561ZM82.0801 100H80.9453V92.5078H82.0801V100ZM80.8496 90.4775C80.8496 90.2178 80.9134 90.0286 81.041 89.9102C81.1686 89.7871 81.3281 89.7256 81.5195 89.7256C81.7018 89.7256 81.859 89.7871 81.9912 89.9102C82.1234 90.0332 82.1895 90.2223 82.1895 90.4775C82.1895 90.7327 82.1234 90.9242 81.9912 91.0518C81.859 91.1748 81.7018 91.2363 81.5195 91.2363C81.3281 91.2363 81.1686 91.1748 81.041 91.0518C80.9134 90.9242 80.8496 90.7327 80.8496 90.4775ZM89.3193 97.9561C89.3193 98.6533 89.0596 99.1911 88.54 99.5693C88.0205 99.9476 87.2913 100.137 86.3525 100.137C85.359 100.137 84.5843 99.9795 84.0283 99.665V98.6123C84.3883 98.7946 84.7734 98.9382 85.1836 99.043C85.5983 99.1478 85.9971 99.2002 86.3799 99.2002C86.9723 99.2002 87.4281 99.1068 87.7471 98.9199C88.0661 98.7285 88.2256 98.4391 88.2256 98.0518C88.2256 97.7601 88.098 97.5117 87.8428 97.3066C87.5921 97.097 87.0999 96.8509 86.3662 96.5684C85.6689 96.3086 85.1722 96.083 84.876 95.8916C84.5843 95.6956 84.3656 95.4746 84.2197 95.2285C84.0785 94.9824 84.0078 94.6885 84.0078 94.3467C84.0078 93.736 84.2562 93.2552 84.7529 92.9043C85.2497 92.5488 85.931 92.3711 86.7969 92.3711C87.6035 92.3711 88.3919 92.5352 89.1621 92.8633L88.7588 93.7861C88.0068 93.4762 87.3255 93.3213 86.7148 93.3213C86.1771 93.3213 85.7715 93.4056 85.498 93.5742C85.2246 93.7428 85.0879 93.9753 85.0879 94.2715C85.0879 94.472 85.138 94.6429 85.2383 94.7842C85.3431 94.9255 85.5094 95.0599 85.7373 95.1875C85.9652 95.3151 86.4027 95.4997 87.0498 95.7412C87.9385 96.0648 88.5378 96.3906 88.8477 96.7188C89.1621 97.0469 89.3193 97.4593 89.3193 97.9561ZM93.5918 99.2002C93.7923 99.2002 93.986 99.1865 94.1729 99.1592C94.3597 99.1273 94.5078 99.0954 94.6172 99.0635V99.9316C94.4941 99.9909 94.3118 100.039 94.0703 100.075C93.8333 100.116 93.6191 100.137 93.4277 100.137C91.9785 100.137 91.2539 99.3734 91.2539 97.8467V93.3896H90.1807V92.8428L91.2539 92.3711L91.7324 90.7715H92.3887V92.5078H94.5625V93.3896H92.3887V97.7988C92.3887 98.25 92.4958 98.5964 92.71 98.8379C92.9242 99.0794 93.2181 99.2002 93.5918 99.2002ZM99.2861 100.137C98.1787 100.137 97.3037 99.7995 96.6611 99.125C96.0231 98.4505 95.7041 97.514 95.7041 96.3154C95.7041 95.1077 96.0003 94.1484 96.5928 93.4375C97.1898 92.7266 97.9896 92.3711 98.9922 92.3711C99.931 92.3711 100.674 92.681 101.221 93.3008C101.768 93.916 102.041 94.7295 102.041 95.7412V96.459H96.8799C96.9027 97.3385 97.1237 98.0062 97.543 98.4619C97.9668 98.9176 98.5615 99.1455 99.3271 99.1455C100.134 99.1455 100.931 98.9769 101.72 98.6396V99.6514C101.319 99.8245 100.938 99.9476 100.578 100.021C100.223 100.098 99.792 100.137 99.2861 100.137ZM98.9785 93.3213C98.377 93.3213 97.8962 93.5173 97.5361 93.9092C97.1807 94.3011 96.971 94.8434 96.9072 95.5361H100.824C100.824 94.8206 100.665 94.2738 100.346 93.8955C100.027 93.5127 99.571 93.3213 98.9785 93.3213ZM109.109 100V95.1533C109.109 94.5426 108.97 94.0869 108.692 93.7861C108.414 93.4854 107.979 93.335 107.387 93.335C106.603 93.335 106.029 93.5469 105.664 93.9707C105.299 94.3945 105.117 95.0941 105.117 96.0693V100H103.982V92.5078H104.905L105.09 93.5332H105.145C105.377 93.1641 105.703 92.8792 106.122 92.6787C106.541 92.4736 107.008 92.3711 107.523 92.3711C108.426 92.3711 109.105 92.5898 109.561 93.0273C110.016 93.4603 110.244 94.1553 110.244 95.1123V100H109.109ZM115.002 99.2002C115.202 99.2002 115.396 99.1865 115.583 99.1592C115.77 99.1273 115.918 99.0954 116.027 99.0635V99.9316C115.904 99.9909 115.722 100.039 115.48 100.075C115.243 100.116 115.029 100.137 114.838 100.137C113.389 100.137 112.664 99.3734 112.664 97.8467V93.3896H111.591V92.8428L112.664 92.3711L113.143 90.7715H113.799V92.5078H115.973V93.3896H113.799V97.7988C113.799 98.25 113.906 98.5964 114.12 98.8379C114.334 99.0794 114.628 99.2002 115.002 99.2002ZM124.162 100.137C123.077 100.137 122.237 99.804 121.64 99.1387C121.047 98.4688 120.751 97.5231 120.751 96.3018C120.751 95.0485 121.052 94.0801 121.653 93.3965C122.259 92.7129 123.121 92.3711 124.237 92.3711C124.597 92.3711 124.957 92.4098 125.317 92.4873C125.677 92.5648 125.96 92.6559 126.165 92.7607L125.816 93.7246C125.566 93.6243 125.292 93.5423 124.996 93.4785C124.7 93.4102 124.438 93.376 124.21 93.376C122.688 93.376 121.927 94.3467 121.927 96.2881C121.927 97.2087 122.111 97.915 122.48 98.4072C122.854 98.8994 123.406 99.1455 124.135 99.1455C124.759 99.1455 125.399 99.0111 126.056 98.7422V99.7471C125.554 100.007 124.923 100.137 124.162 100.137ZM132.967 100V95.1533C132.967 94.5426 132.828 94.0869 132.55 93.7861C132.272 93.4854 131.837 93.335 131.244 93.335C130.456 93.335 129.879 93.5492 129.515 93.9775C129.155 94.4059 128.975 95.1077 128.975 96.083V100H127.84V89.3633H128.975V92.583C128.975 92.9704 128.956 93.2917 128.92 93.5469H128.988C129.212 93.1868 129.528 92.9043 129.938 92.6992C130.353 92.4896 130.825 92.3848 131.354 92.3848C132.27 92.3848 132.955 92.6035 133.411 93.041C133.871 93.474 134.102 94.1644 134.102 95.1123V100H132.967ZM139.604 100.137C138.497 100.137 137.622 99.7995 136.979 99.125C136.341 98.4505 136.022 97.514 136.022 96.3154C136.022 95.1077 136.319 94.1484 136.911 93.4375C137.508 92.7266 138.308 92.3711 139.311 92.3711C140.249 92.3711 140.992 92.681 141.539 93.3008C142.086 93.916 142.359 94.7295 142.359 95.7412V96.459H137.198C137.221 97.3385 137.442 98.0062 137.861 98.4619C138.285 98.9176 138.88 99.1455 139.646 99.1455C140.452 99.1455 141.25 98.9769 142.038 98.6396V99.6514C141.637 99.8245 141.257 99.9476 140.896 100.021C140.541 100.098 140.11 100.137 139.604 100.137ZM139.297 93.3213C138.695 93.3213 138.215 93.5173 137.854 93.9092C137.499 94.3011 137.289 94.8434 137.226 95.5361H141.143C141.143 94.8206 140.983 94.2738 140.664 93.8955C140.345 93.5127 139.889 93.3213 139.297 93.3213ZM147.295 100.137C146.21 100.137 145.369 99.804 144.772 99.1387C144.18 98.4688 143.884 97.5231 143.884 96.3018C143.884 95.0485 144.185 94.0801 144.786 93.3965C145.392 92.7129 146.254 92.3711 147.37 92.3711C147.73 92.3711 148.09 92.4098 148.45 92.4873C148.81 92.5648 149.093 92.6559 149.298 92.7607L148.949 93.7246C148.699 93.6243 148.425 93.5423 148.129 93.4785C147.833 93.4102 147.571 93.376 147.343 93.376C145.821 93.376 145.06 94.3467 145.06 96.2881C145.06 97.2087 145.244 97.915 145.613 98.4072C145.987 98.8994 146.538 99.1455 147.268 99.1455C147.892 99.1455 148.532 99.0111 149.188 98.7422V99.7471C148.687 100.007 148.056 100.137 147.295 100.137ZM152.094 96.165C152.29 95.887 152.588 95.5225 152.989 95.0713L155.409 92.5078H156.756L153.721 95.7002L156.968 100H155.594L152.948 96.459L152.094 97.1973V100H150.973V89.3633H152.094V95.0029C152.094 95.2536 152.076 95.641 152.039 96.165H152.094ZM164.795 96.2471C164.795 97.4684 164.487 98.4232 163.872 99.1113C163.257 99.7949 162.407 100.137 161.322 100.137C160.652 100.137 160.058 99.9795 159.538 99.665C159.019 99.3506 158.618 98.8994 158.335 98.3115C158.052 97.7236 157.911 97.0355 157.911 96.2471C157.911 95.0257 158.216 94.0755 158.827 93.3965C159.438 92.7129 160.285 92.3711 161.37 92.3711C162.418 92.3711 163.25 92.7197 163.865 93.417C164.485 94.1143 164.795 95.0576 164.795 96.2471ZM159.087 96.2471C159.087 97.2041 159.278 97.9333 159.661 98.4346C160.044 98.9359 160.607 99.1865 161.35 99.1865C162.092 99.1865 162.655 98.9382 163.038 98.4414C163.425 97.9401 163.619 97.2087 163.619 96.2471C163.619 95.2946 163.425 94.5723 163.038 94.0801C162.655 93.5833 162.088 93.335 161.336 93.335C160.593 93.335 160.033 93.5788 159.654 94.0664C159.276 94.554 159.087 95.2809 159.087 96.2471ZM167.857 92.5078V97.3682C167.857 97.9788 167.996 98.4346 168.274 98.7354C168.552 99.0361 168.988 99.1865 169.58 99.1865C170.364 99.1865 170.936 98.9723 171.296 98.5439C171.66 98.1156 171.843 97.416 171.843 96.4453V92.5078H172.978V100H172.041L171.877 98.9951H171.815C171.583 99.3643 171.259 99.6468 170.845 99.8428C170.435 100.039 169.965 100.137 169.437 100.137C168.525 100.137 167.841 99.9202 167.386 99.4873C166.935 99.0544 166.709 98.3617 166.709 97.4092V92.5078H167.857ZM177.811 99.2002C178.011 99.2002 178.205 99.1865 178.392 99.1592C178.578 99.1273 178.727 99.0954 178.836 99.0635V99.9316C178.713 99.9909 178.531 100.039 178.289 100.075C178.052 100.116 177.838 100.137 177.646 100.137C176.197 100.137 175.473 99.3734 175.473 97.8467V93.3896H174.399V92.8428L175.473 92.3711L175.951 90.7715H176.607V92.5078H178.781V93.3896H176.607V97.7988C176.607 98.25 176.715 98.5964 176.929 98.8379C177.143 99.0794 177.437 99.2002 177.811 99.2002ZM187.354 93.3896H185.446V100H184.312V93.3896H182.972V92.877L184.312 92.4668V92.0498C184.312 90.2087 185.116 89.2881 186.725 89.2881C187.121 89.2881 187.586 89.3678 188.119 89.5273L187.825 90.4365C187.388 90.2952 187.014 90.2246 186.704 90.2246C186.276 90.2246 185.959 90.3682 185.754 90.6553C185.549 90.9378 185.446 91.3936 185.446 92.0225V92.5078H187.354V93.3896ZM195.188 96.2471C195.188 97.4684 194.88 98.4232 194.265 99.1113C193.649 99.7949 192.799 100.137 191.715 100.137C191.045 100.137 190.45 99.9795 189.931 99.665C189.411 99.3506 189.01 98.8994 188.728 98.3115C188.445 97.7236 188.304 97.0355 188.304 96.2471C188.304 95.0257 188.609 94.0755 189.22 93.3965C189.83 92.7129 190.678 92.3711 191.763 92.3711C192.811 92.3711 193.643 92.7197 194.258 93.417C194.878 94.1143 195.188 95.0576 195.188 96.2471ZM189.479 96.2471C189.479 97.2041 189.671 97.9333 190.054 98.4346C190.437 98.9359 190.999 99.1865 191.742 99.1865C192.485 99.1865 193.048 98.9382 193.431 98.4414C193.818 97.9401 194.012 97.2087 194.012 96.2471C194.012 95.2946 193.818 94.5723 193.431 94.0801C193.048 93.5833 192.48 93.335 191.729 93.335C190.986 93.335 190.425 93.5788 190.047 94.0664C189.669 94.554 189.479 95.2809 189.479 96.2471ZM200.602 92.3711C200.934 92.3711 201.233 92.3984 201.497 92.4531L201.34 93.5059C201.03 93.4375 200.757 93.4033 200.52 93.4033C199.913 93.4033 199.394 93.6494 198.961 94.1416C198.533 94.6338 198.318 95.2467 198.318 95.9805V100H197.184V92.5078H198.12L198.25 93.8955H198.305C198.583 93.4079 198.918 93.0319 199.31 92.7676C199.701 92.5033 200.132 92.3711 200.602 92.3711ZM212.448 100V95.126C212.448 94.529 212.321 94.0824 212.065 93.7861C211.81 93.4854 211.414 93.335 210.876 93.335C210.17 93.335 209.648 93.5378 209.311 93.9434C208.973 94.349 208.805 94.9733 208.805 95.8164V100H207.67V95.126C207.67 94.529 207.542 94.0824 207.287 93.7861C207.032 93.4854 206.633 93.335 206.091 93.335C205.38 93.335 204.858 93.5492 204.525 93.9775C204.197 94.4014 204.033 95.0986 204.033 96.0693V100H202.898V92.5078H203.821L204.006 93.5332H204.061C204.275 93.1686 204.576 92.8838 204.963 92.6787C205.355 92.4736 205.792 92.3711 206.275 92.3711C207.447 92.3711 208.212 92.7949 208.572 93.6426H208.627C208.85 93.2507 209.174 92.9408 209.598 92.7129C210.021 92.485 210.505 92.3711 211.047 92.3711C211.895 92.3711 212.528 92.5898 212.947 93.0273C213.371 93.4603 213.583 94.1553 213.583 95.1123V100H212.448Z" fill="#B45054"/>
</svg>
