<svg width="230" height="130" viewBox="0 0 230 130" fill="none" xmlns="http://www.w3.org/2000/svg">
<line x1="177" y1="70" x2="177" y2="128" stroke="#D27984" stroke-width="2"/>
<circle cx="177.5" cy="126.5" r="3.5" fill="#B45054"/>
<rect x="1" y="1" width="228" height="68" rx="6" fill="#F9E6E9" stroke="#D27984" stroke-width="2"/>
<path d="M12.5078 29V17.5781H14.375V29H12.5078ZM24.4844 29H22.6406V23.6719C22.6406 23.0104 22.5156 22.5182 22.2656 22.1953C22.0156 21.8672 21.625 21.7031 21.0938 21.7031C20.3854 21.7031 19.8646 21.9349 19.5312 22.3984C19.2031 22.8568 19.0391 23.6224 19.0391 24.6953V29H17.2031V20.3594H18.6406L18.8984 21.4922H18.9922C19.2318 21.0807 19.5781 20.763 20.0312 20.5391C20.4896 20.3151 20.9922 20.2031 21.5391 20.2031C22.8672 20.2031 23.7474 20.6562 24.1797 21.5625H24.3047C24.5599 21.1354 24.9193 20.8021 25.3828 20.5625C25.8464 20.3229 26.3776 20.2031 26.9766 20.2031C28.0078 20.2031 28.7578 20.4635 29.2266 20.9844C29.7005 21.5052 29.9375 22.2995 29.9375 23.3672V29H28.1016V23.6719C28.1016 23.0104 27.974 22.5182 27.7188 22.1953C27.4688 21.8672 27.0781 21.7031 26.5469 21.7031C25.8333 21.7031 25.3099 21.9271 24.9766 22.375C24.6484 22.8177 24.4844 23.5 24.4844 24.4219V29ZM39.7812 29H37.9375V23.6719C37.9375 23.0104 37.8125 22.5182 37.5625 22.1953C37.3125 21.8672 36.9219 21.7031 36.3906 21.7031C35.6823 21.7031 35.1615 21.9349 34.8281 22.3984C34.5 22.8568 34.3359 23.6224 34.3359 24.6953V29H32.5V20.3594H33.9375L34.1953 21.4922H34.2891C34.5286 21.0807 34.875 20.763 35.3281 20.5391C35.7865 20.3151 36.2891 20.2031 36.8359 20.2031C38.1641 20.2031 39.0443 20.6562 39.4766 21.5625H39.6016C39.8568 21.1354 40.2161 20.8021 40.6797 20.5625C41.1432 20.3229 41.6745 20.2031 42.2734 20.2031C43.3047 20.2031 44.0547 20.4635 44.5234 20.9844C44.9974 21.5052 45.2344 22.2995 45.2344 23.3672V29H43.3984V23.6719C43.3984 23.0104 43.2708 22.5182 43.0156 22.1953C42.7656 21.8672 42.375 21.7031 41.8438 21.7031C41.1302 21.7031 40.6068 21.9271 40.2734 22.375C39.9453 22.8177 39.7812 23.5 39.7812 24.4219V29ZM51.5703 29.1562C50.2266 29.1562 49.1745 28.7656 48.4141 27.9844C47.6589 27.1979 47.2812 26.1172 47.2812 24.7422C47.2812 23.3307 47.6328 22.2214 48.3359 21.4141C49.0391 20.6068 50.0052 20.2031 51.2344 20.2031C52.375 20.2031 53.276 20.5495 53.9375 21.2422C54.599 21.9349 54.9297 22.888 54.9297 24.1016V25.0938H49.1719C49.1979 25.9323 49.4245 26.5781 49.8516 27.0312C50.2786 27.4792 50.8802 27.7031 51.6562 27.7031C52.1667 27.7031 52.6406 27.6562 53.0781 27.5625C53.5208 27.4635 53.9948 27.3021 54.5 27.0781V28.5703C54.0521 28.7839 53.599 28.9349 53.1406 29.0234C52.6823 29.112 52.1589 29.1562 51.5703 29.1562ZM51.2344 21.5938C50.651 21.5938 50.1823 21.7786 49.8281 22.1484C49.4792 22.5182 49.2708 23.0573 49.2031 23.7656H53.125C53.1146 23.0521 52.9427 22.513 52.6094 22.1484C52.276 21.7786 51.8177 21.5938 51.2344 21.5938ZM59.9297 29.1562C58.8516 29.1562 58.0104 28.7656 57.4062 27.9844C56.8021 27.2031 56.5 26.1068 56.5 24.6953C56.5 23.2786 56.8047 22.1771 57.4141 21.3906C58.0286 20.599 58.8776 20.2031 59.9609 20.2031C61.0964 20.2031 61.9609 20.6224 62.5547 21.4609H62.6484C62.5599 20.8411 62.5156 20.3516 62.5156 19.9922V16.8438H64.3594V29H62.9219L62.6016 27.8672H62.5156C61.9271 28.7266 61.0651 29.1562 59.9297 29.1562ZM60.4219 27.6719C61.1771 27.6719 61.7266 27.4609 62.0703 27.0391C62.4141 26.612 62.5911 25.9219 62.6016 24.9688V24.7109C62.6016 23.6224 62.4245 22.849 62.0703 22.3906C61.7161 21.9323 61.1615 21.7031 60.4062 21.7031C59.7604 21.7031 59.263 21.9661 58.9141 22.4922C58.5651 23.013 58.3906 23.7578 58.3906 24.7266C58.3906 25.6849 58.5599 26.4167 58.8984 26.9219C59.237 27.4219 59.7448 27.6719 60.4219 27.6719ZM68.8203 29H66.9844V20.3594H68.8203V29ZM66.875 18.0703C66.875 17.7422 66.9635 17.4896 67.1406 17.3125C67.3229 17.1354 67.5807 17.0469 67.9141 17.0469C68.237 17.0469 68.487 17.1354 68.6641 17.3125C68.8464 17.4896 68.9375 17.7422 68.9375 18.0703C68.9375 18.3828 68.8464 18.6302 68.6641 18.8125C68.487 18.9896 68.237 19.0781 67.9141 19.0781C67.5807 19.0781 67.3229 18.9896 67.1406 18.8125C66.9635 18.6302 66.875 18.3828 66.875 18.0703ZM76.8594 29L76.4922 27.7969H76.4297C76.013 28.3229 75.5938 28.6823 75.1719 28.875C74.75 29.0625 74.2083 29.1562 73.5469 29.1562C72.6979 29.1562 72.0339 28.9271 71.5547 28.4688C71.0807 28.0104 70.8438 27.362 70.8438 26.5234C70.8438 25.6328 71.1745 24.9609 71.8359 24.5078C72.4974 24.0547 73.5052 23.8073 74.8594 23.7656L76.3516 23.7188V23.2578C76.3516 22.7057 76.2214 22.2943 75.9609 22.0234C75.7057 21.7474 75.3073 21.6094 74.7656 21.6094C74.3229 21.6094 73.8984 21.6745 73.4922 21.8047C73.0859 21.9349 72.6953 22.0885 72.3203 22.2656L71.7266 20.9531C72.1953 20.7083 72.7083 20.5234 73.2656 20.3984C73.8229 20.2682 74.349 20.2031 74.8438 20.2031C75.9427 20.2031 76.7708 20.4427 77.3281 20.9219C77.8906 21.401 78.1719 22.1536 78.1719 23.1797V29H76.8594ZM74.125 27.75C74.7917 27.75 75.3255 27.5651 75.7266 27.1953C76.1328 26.8203 76.3359 26.2969 76.3359 25.625V24.875L75.2266 24.9219C74.362 24.9531 73.7318 25.099 73.3359 25.3594C72.9453 25.6146 72.75 26.0078 72.75 26.5391C72.75 26.9245 72.8646 27.224 73.0938 27.4375C73.3229 27.6458 73.6667 27.75 74.125 27.75ZM83.9531 27.6719C84.401 27.6719 84.849 27.6016 85.2969 27.4609V28.8438C85.0938 28.9323 84.8307 29.0052 84.5078 29.0625C84.1901 29.125 83.8594 29.1562 83.5156 29.1562C81.776 29.1562 80.9062 28.2396 80.9062 26.4062V21.75H79.7266V20.9375L80.9922 20.2656L81.6172 18.4375H82.75V20.3594H85.2109V21.75H82.75V26.375C82.75 26.8177 82.8594 27.1458 83.0781 27.3594C83.3021 27.5677 83.5938 27.6719 83.9531 27.6719ZM90.8047 29.1562C89.4609 29.1562 88.4089 28.7656 87.6484 27.9844C86.8932 27.1979 86.5156 26.1172 86.5156 24.7422C86.5156 23.3307 86.8672 22.2214 87.5703 21.4141C88.2734 20.6068 89.2396 20.2031 90.4688 20.2031C91.6094 20.2031 92.5104 20.5495 93.1719 21.2422C93.8333 21.9349 94.1641 22.888 94.1641 24.1016V25.0938H88.4062C88.4323 25.9323 88.6589 26.5781 89.0859 27.0312C89.513 27.4792 90.1146 27.7031 90.8906 27.7031C91.401 27.7031 91.875 27.6562 92.3125 27.5625C92.7552 27.4635 93.2292 27.3021 93.7344 27.0781V28.5703C93.2865 28.7839 92.8333 28.9349 92.375 29.0234C91.9167 29.112 91.3932 29.1562 90.8047 29.1562ZM90.4688 21.5938C89.8854 21.5938 89.4167 21.7786 89.0625 22.1484C88.7135 22.5182 88.5052 23.0573 88.4375 23.7656H92.3594C92.349 23.0521 92.1771 22.513 91.8438 22.1484C91.5104 21.7786 91.0521 21.5938 90.4688 21.5938ZM98.1562 27.3203C97.9062 28.2891 97.4479 29.5365 96.7812 31.0625H95.4297C95.7891 29.6562 96.0573 28.349 96.2344 27.1406H98.0391L98.1562 27.3203ZM108.172 29.1562C106.865 29.1562 105.87 28.776 105.188 28.0156C104.51 27.25 104.172 26.1536 104.172 24.7266C104.172 23.2734 104.526 22.1562 105.234 21.375C105.948 20.5938 106.977 20.2031 108.32 20.2031C109.232 20.2031 110.052 20.3724 110.781 20.7109L110.227 22.1875C109.451 21.8854 108.81 21.7344 108.305 21.7344C106.81 21.7344 106.062 22.7266 106.062 24.7109C106.062 25.6797 106.247 26.4089 106.617 26.8984C106.992 27.3828 107.539 27.625 108.258 27.625C109.076 27.625 109.849 27.4219 110.578 27.0156V28.6172C110.25 28.8099 109.898 28.9479 109.523 29.0312C109.154 29.1146 108.703 29.1562 108.172 29.1562ZM120.273 24.6641C120.273 26.0755 119.911 27.1771 119.188 27.9688C118.464 28.7604 117.456 29.1562 116.164 29.1562C115.357 29.1562 114.643 28.974 114.023 28.6094C113.404 28.2448 112.927 27.7214 112.594 27.0391C112.26 26.3568 112.094 25.5651 112.094 24.6641C112.094 23.263 112.453 22.1693 113.172 21.3828C113.891 20.5964 114.904 20.2031 116.211 20.2031C117.461 20.2031 118.451 20.6068 119.18 21.4141C119.909 22.2161 120.273 23.2995 120.273 24.6641ZM113.984 24.6641C113.984 26.6589 114.721 27.6562 116.195 27.6562C117.654 27.6562 118.383 26.6589 118.383 24.6641C118.383 22.6901 117.648 21.7031 116.18 21.7031C115.409 21.7031 114.849 21.9583 114.5 22.4688C114.156 22.9792 113.984 23.7109 113.984 24.6641ZM129.992 29H128.148V23.6875C128.148 23.0208 128.013 22.5234 127.742 22.1953C127.477 21.8672 127.052 21.7031 126.469 21.7031C125.693 21.7031 125.125 21.9323 124.766 22.3906C124.406 22.849 124.227 23.6172 124.227 24.6953V29H122.391V20.3594H123.828L124.086 21.4922H124.18C124.44 21.0807 124.81 20.763 125.289 20.5391C125.768 20.3151 126.299 20.2031 126.883 20.2031C128.956 20.2031 129.992 21.2578 129.992 23.3672V29ZM136.031 29.1562C134.724 29.1562 133.729 28.776 133.047 28.0156C132.37 27.25 132.031 26.1536 132.031 24.7266C132.031 23.2734 132.385 22.1562 133.094 21.375C133.807 20.5938 134.836 20.2031 136.18 20.2031C137.091 20.2031 137.911 20.3724 138.641 20.7109L138.086 22.1875C137.31 21.8854 136.669 21.7344 136.164 21.7344C134.669 21.7344 133.922 22.7266 133.922 24.7109C133.922 25.6797 134.107 26.4089 134.477 26.8984C134.852 27.3828 135.398 27.625 136.117 27.625C136.935 27.625 137.708 27.4219 138.438 27.0156V28.6172C138.109 28.8099 137.758 28.9479 137.383 29.0312C137.013 29.1146 136.562 29.1562 136.031 29.1562ZM142.305 29H140.469V20.3594H142.305V29ZM140.359 18.0703C140.359 17.7422 140.448 17.4896 140.625 17.3125C140.807 17.1354 141.065 17.0469 141.398 17.0469C141.721 17.0469 141.971 17.1354 142.148 17.3125C142.331 17.4896 142.422 17.7422 142.422 18.0703C142.422 18.3828 142.331 18.6302 142.148 18.8125C141.971 18.9896 141.721 19.0781 141.398 19.0781C141.065 19.0781 140.807 18.9896 140.625 18.8125C140.448 18.6302 140.359 18.3828 140.359 18.0703ZM150.742 26.5391C150.742 27.3828 150.435 28.0312 149.82 28.4844C149.206 28.9323 148.326 29.1562 147.18 29.1562C146.029 29.1562 145.104 28.9818 144.406 28.6328V27.0469C145.422 27.5156 146.367 27.75 147.242 27.75C148.372 27.75 148.938 27.4089 148.938 26.7266C148.938 26.5078 148.875 26.3255 148.75 26.1797C148.625 26.0339 148.419 25.8828 148.133 25.7266C147.846 25.5703 147.448 25.3932 146.938 25.1953C145.943 24.8099 145.268 24.4245 144.914 24.0391C144.565 23.6536 144.391 23.1536 144.391 22.5391C144.391 21.7995 144.688 21.2266 145.281 20.8203C145.88 20.4089 146.693 20.2031 147.719 20.2031C148.734 20.2031 149.695 20.4089 150.602 20.8203L150.008 22.2031C149.076 21.8177 148.292 21.625 147.656 21.625C146.688 21.625 146.203 21.901 146.203 22.4531C146.203 22.724 146.328 22.9531 146.578 23.1406C146.833 23.3281 147.385 23.5859 148.234 23.9141C148.948 24.1901 149.466 24.4427 149.789 24.6719C150.112 24.901 150.352 25.1667 150.508 25.4688C150.664 25.7656 150.742 26.1224 150.742 26.5391ZM156.508 29.1562C155.164 29.1562 154.112 28.7656 153.352 27.9844C152.596 27.1979 152.219 26.1172 152.219 24.7422C152.219 23.3307 152.57 22.2214 153.273 21.4141C153.977 20.6068 154.943 20.2031 156.172 20.2031C157.312 20.2031 158.214 20.5495 158.875 21.2422C159.536 21.9349 159.867 22.888 159.867 24.1016V25.0938H154.109C154.135 25.9323 154.362 26.5781 154.789 27.0312C155.216 27.4792 155.818 27.7031 156.594 27.7031C157.104 27.7031 157.578 27.6562 158.016 27.5625C158.458 27.4635 158.932 27.3021 159.438 27.0781V28.5703C158.99 28.7839 158.536 28.9349 158.078 29.0234C157.62 29.112 157.096 29.1562 156.508 29.1562ZM156.172 21.5938C155.589 21.5938 155.12 21.7786 154.766 22.1484C154.417 22.5182 154.208 23.0573 154.141 23.7656H158.062C158.052 23.0521 157.88 22.513 157.547 22.1484C157.214 21.7786 156.755 21.5938 156.172 21.5938ZM169.883 29.1562C168.539 29.1562 167.487 28.7656 166.727 27.9844C165.971 27.1979 165.594 26.1172 165.594 24.7422C165.594 23.3307 165.945 22.2214 166.648 21.4141C167.352 20.6068 168.318 20.2031 169.547 20.2031C170.688 20.2031 171.589 20.5495 172.25 21.2422C172.911 21.9349 173.242 22.888 173.242 24.1016V25.0938H167.484C167.51 25.9323 167.737 26.5781 168.164 27.0312C168.591 27.4792 169.193 27.7031 169.969 27.7031C170.479 27.7031 170.953 27.6562 171.391 27.5625C171.833 27.4635 172.307 27.3021 172.812 27.0781V28.5703C172.365 28.7839 171.911 28.9349 171.453 29.0234C170.995 29.112 170.471 29.1562 169.883 29.1562ZM169.547 21.5938C168.964 21.5938 168.495 21.7786 168.141 22.1484C167.792 22.5182 167.583 23.0573 167.516 23.7656H171.438C171.427 23.0521 171.255 22.513 170.922 22.1484C170.589 21.7786 170.13 21.5938 169.547 21.5938ZM179.711 20.2031C180.081 20.2031 180.385 20.2292 180.625 20.2812L180.445 21.9922C180.185 21.9297 179.914 21.8984 179.633 21.8984C178.898 21.8984 178.302 22.138 177.844 22.6172C177.391 23.0964 177.164 23.7188 177.164 24.4844V29H175.328V20.3594H176.766L177.008 21.8828H177.102C177.388 21.3672 177.76 20.9583 178.219 20.6562C178.682 20.3542 179.18 20.2031 179.711 20.2031ZM186.617 20.2031C186.987 20.2031 187.292 20.2292 187.531 20.2812L187.352 21.9922C187.091 21.9297 186.82 21.8984 186.539 21.8984C185.805 21.8984 185.208 22.138 184.75 22.6172C184.297 23.0964 184.07 23.7188 184.07 24.4844V29H182.234V20.3594H183.672L183.914 21.8828H184.008C184.294 21.3672 184.667 20.9583 185.125 20.6562C185.589 20.3542 186.086 20.2031 186.617 20.2031ZM196.805 24.6641C196.805 26.0755 196.443 27.1771 195.719 27.9688C194.995 28.7604 193.987 29.1562 192.695 29.1562C191.888 29.1562 191.174 28.974 190.555 28.6094C189.935 28.2448 189.458 27.7214 189.125 27.0391C188.792 26.3568 188.625 25.5651 188.625 24.6641C188.625 23.263 188.984 22.1693 189.703 21.3828C190.422 20.5964 191.435 20.2031 192.742 20.2031C193.992 20.2031 194.982 20.6068 195.711 21.4141C196.44 22.2161 196.805 23.2995 196.805 24.6641ZM190.516 24.6641C190.516 26.6589 191.253 27.6562 192.727 27.6562C194.185 27.6562 194.914 26.6589 194.914 24.6641C194.914 22.6901 194.18 21.7031 192.711 21.7031C191.94 21.7031 191.38 21.9583 191.031 22.4688C190.688 22.9792 190.516 23.7109 190.516 24.6641ZM203.305 20.2031C203.674 20.2031 203.979 20.2292 204.219 20.2812L204.039 21.9922C203.779 21.9297 203.508 21.8984 203.227 21.8984C202.492 21.8984 201.896 22.138 201.438 22.6172C200.984 23.0964 200.758 23.7188 200.758 24.4844V29H198.922V20.3594H200.359L200.602 21.8828H200.695C200.982 21.3672 201.354 20.9583 201.812 20.6562C202.276 20.3542 202.773 20.2031 203.305 20.2031ZM211.633 26.5391C211.633 27.3828 211.326 28.0312 210.711 28.4844C210.096 28.9323 209.216 29.1562 208.07 29.1562C206.919 29.1562 205.995 28.9818 205.297 28.6328V27.0469C206.312 27.5156 207.258 27.75 208.133 27.75C209.263 27.75 209.828 27.4089 209.828 26.7266C209.828 26.5078 209.766 26.3255 209.641 26.1797C209.516 26.0339 209.31 25.8828 209.023 25.7266C208.737 25.5703 208.339 25.3932 207.828 25.1953C206.833 24.8099 206.159 24.4245 205.805 24.0391C205.456 23.6536 205.281 23.1536 205.281 22.5391C205.281 21.7995 205.578 21.2266 206.172 20.8203C206.771 20.4089 207.583 20.2031 208.609 20.2031C209.625 20.2031 210.586 20.4089 211.492 20.8203L210.898 22.2031C209.966 21.8177 209.182 21.625 208.547 21.625C207.578 21.625 207.094 21.901 207.094 22.4531C207.094 22.724 207.219 22.9531 207.469 23.1406C207.724 23.3281 208.276 23.5859 209.125 23.9141C209.839 24.1901 210.357 24.4427 210.68 24.6719C211.003 24.901 211.242 25.1667 211.398 25.4688C211.555 25.7656 211.633 26.1224 211.633 26.5391Z" fill="#81363E"/>
<path d="M12.374 54V44.0059H13.5361V54H12.374ZM25.6631 54V49.126C25.6631 48.529 25.5355 48.0824 25.2803 47.7861C25.0251 47.4854 24.6286 47.335 24.0908 47.335C23.3844 47.335 22.8626 47.5378 22.5254 47.9434C22.1882 48.349 22.0195 48.9733 22.0195 49.8164V54H20.8848V49.126C20.8848 48.529 20.7572 48.0824 20.502 47.7861C20.2467 47.4854 19.848 47.335 19.3057 47.335C18.5947 47.335 18.0729 47.5492 17.7402 47.9775C17.4121 48.4014 17.248 49.0986 17.248 50.0693V54H16.1133V46.5078H17.0361L17.2207 47.5332H17.2754C17.4896 47.1686 17.7904 46.8838 18.1777 46.6787C18.5697 46.4736 19.0072 46.3711 19.4902 46.3711C20.6615 46.3711 21.4271 46.7949 21.7871 47.6426H21.8418C22.0651 47.2507 22.3887 46.9408 22.8125 46.7129C23.2363 46.485 23.7194 46.3711 24.2617 46.3711C25.1094 46.3711 25.7428 46.5898 26.1621 47.0273C26.5859 47.4603 26.7979 48.1553 26.7979 49.1123V54H25.6631ZM32.6289 54.1367C32.1413 54.1367 31.6947 54.0479 31.2891 53.8701C30.888 53.6878 30.5508 53.4098 30.2773 53.0361H30.1953C30.25 53.4736 30.2773 53.8883 30.2773 54.2803V57.3633H29.1426V46.5078H30.0654L30.2227 47.5332H30.2773C30.569 47.123 30.9085 46.8268 31.2959 46.6445C31.6833 46.4622 32.1276 46.3711 32.6289 46.3711C33.6224 46.3711 34.388 46.7106 34.9258 47.3896C35.4681 48.0687 35.7393 49.0212 35.7393 50.2471C35.7393 51.4775 35.4635 52.4346 34.9121 53.1182C34.3652 53.7972 33.6042 54.1367 32.6289 54.1367ZM32.4648 47.335C31.6992 47.335 31.1455 47.5469 30.8037 47.9707C30.4619 48.3945 30.2865 49.069 30.2773 49.9941V50.2471C30.2773 51.2998 30.4528 52.054 30.8037 52.5098C31.1546 52.9609 31.7174 53.1865 32.4922 53.1865C33.1393 53.1865 33.6452 52.9245 34.0098 52.4004C34.3789 51.8763 34.5635 51.154 34.5635 50.2334C34.5635 49.2992 34.3789 48.5837 34.0098 48.0869C33.6452 47.5856 33.1302 47.335 32.4648 47.335ZM41.1465 46.3711C41.4792 46.3711 41.7777 46.3984 42.042 46.4531L41.8848 47.5059C41.5749 47.4375 41.3014 47.4033 41.0645 47.4033C40.4583 47.4033 39.9388 47.6494 39.5059 48.1416C39.0775 48.6338 38.8633 49.2467 38.8633 49.9805V54H37.7285V46.5078H38.665L38.7949 47.8955H38.8496C39.1276 47.4079 39.4626 47.0319 39.8545 46.7676C40.2464 46.5033 40.6771 46.3711 41.1465 46.3711ZM49.9102 50.2471C49.9102 51.4684 49.6025 52.4232 48.9873 53.1113C48.3721 53.7949 47.5221 54.1367 46.4375 54.1367C45.7676 54.1367 45.1729 53.9795 44.6533 53.665C44.1338 53.3506 43.7327 52.8994 43.4502 52.3115C43.1676 51.7236 43.0264 51.0355 43.0264 50.2471C43.0264 49.0257 43.3317 48.0755 43.9424 47.3965C44.5531 46.7129 45.4007 46.3711 46.4854 46.3711C47.5335 46.3711 48.3652 46.7197 48.9805 47.417C49.6003 48.1143 49.9102 49.0576 49.9102 50.2471ZM44.2021 50.2471C44.2021 51.2041 44.3936 51.9333 44.7764 52.4346C45.1592 52.9359 45.722 53.1865 46.4648 53.1865C47.2077 53.1865 47.7705 52.9382 48.1533 52.4414C48.5407 51.9401 48.7344 51.2087 48.7344 50.2471C48.7344 49.2946 48.5407 48.5723 48.1533 48.0801C47.7705 47.5833 47.2031 47.335 46.4512 47.335C45.7083 47.335 45.1478 47.5788 44.7695 48.0664C44.3913 48.554 44.2021 49.2809 44.2021 50.2471ZM53.5469 54L50.7031 46.5078H51.9199L53.5332 50.9512C53.8978 51.9902 54.112 52.6647 54.1758 52.9746H54.2305C54.2806 52.7331 54.4378 52.234 54.7021 51.4775C54.971 50.7165 55.5703 49.0599 56.5 46.5078H57.7168L54.873 54H53.5469ZM62.085 54.1367C60.9775 54.1367 60.1025 53.7995 59.46 53.125C58.8219 52.4505 58.5029 51.514 58.5029 50.3154C58.5029 49.1077 58.7992 48.1484 59.3916 47.4375C59.9886 46.7266 60.7884 46.3711 61.791 46.3711C62.7298 46.3711 63.4727 46.681 64.0195 47.3008C64.5664 47.916 64.8398 48.7295 64.8398 49.7412V50.459H59.6787C59.7015 51.3385 59.9225 52.0062 60.3418 52.4619C60.7656 52.9176 61.3604 53.1455 62.126 53.1455C62.9326 53.1455 63.7301 52.9769 64.5186 52.6396V53.6514C64.1175 53.8245 63.737 53.9476 63.377 54.0205C63.0215 54.098 62.5908 54.1367 62.085 54.1367ZM61.7773 47.3213C61.1758 47.3213 60.695 47.5173 60.335 47.9092C59.9795 48.3011 59.7699 48.8434 59.7061 49.5361H63.623C63.623 48.8206 63.4635 48.2738 63.1445 47.8955C62.8255 47.5127 62.3698 47.3213 61.7773 47.3213ZM71.6143 51.9561C71.6143 52.6533 71.3545 53.1911 70.835 53.5693C70.3154 53.9476 69.5863 54.1367 68.6475 54.1367C67.654 54.1367 66.8792 53.9795 66.3232 53.665V52.6123C66.6833 52.7946 67.0684 52.9382 67.4785 53.043C67.8932 53.1478 68.292 53.2002 68.6748 53.2002C69.2673 53.2002 69.723 53.1068 70.042 52.9199C70.361 52.7285 70.5205 52.4391 70.5205 52.0518C70.5205 51.7601 70.3929 51.5117 70.1377 51.3066C69.887 51.097 69.3949 50.8509 68.6611 50.5684C67.9639 50.3086 67.4671 50.083 67.1709 49.8916C66.8792 49.6956 66.6605 49.4746 66.5146 49.2285C66.3734 48.9824 66.3027 48.6885 66.3027 48.3467C66.3027 47.736 66.5511 47.2552 67.0479 46.9043C67.5446 46.5488 68.2259 46.3711 69.0918 46.3711C69.8984 46.3711 70.6868 46.5352 71.457 46.8633L71.0537 47.7861C70.3018 47.4762 69.6204 47.3213 69.0098 47.3213C68.472 47.3213 68.0664 47.4056 67.793 47.5742C67.5195 47.7428 67.3828 47.9753 67.3828 48.2715C67.3828 48.472 67.4329 48.6429 67.5332 48.7842C67.638 48.9255 67.8044 49.0599 68.0322 49.1875C68.2601 49.3151 68.6976 49.4997 69.3447 49.7412C70.2334 50.0648 70.8327 50.3906 71.1426 50.7188C71.457 51.0469 71.6143 51.4593 71.6143 51.9561ZM78.1699 46.5078V51.3682C78.1699 51.9788 78.3089 52.4346 78.5869 52.7354C78.8649 53.0361 79.3001 53.1865 79.8926 53.1865C80.6764 53.1865 81.2484 52.9723 81.6084 52.5439C81.973 52.1156 82.1553 51.416 82.1553 50.4453V46.5078H83.29V54H82.3535L82.1895 52.9951H82.1279C81.8955 53.3643 81.5719 53.6468 81.1572 53.8428C80.7471 54.0387 80.2777 54.1367 79.749 54.1367C78.8376 54.1367 78.154 53.9202 77.6982 53.4873C77.2471 53.0544 77.0215 52.3617 77.0215 51.4092V46.5078H78.1699ZM90.5361 51.9561C90.5361 52.6533 90.2764 53.1911 89.7568 53.5693C89.2373 53.9476 88.5081 54.1367 87.5693 54.1367C86.5758 54.1367 85.8011 53.9795 85.2451 53.665V52.6123C85.6051 52.7946 85.9902 52.9382 86.4004 53.043C86.8151 53.1478 87.2139 53.2002 87.5967 53.2002C88.1891 53.2002 88.6449 53.1068 88.9639 52.9199C89.2829 52.7285 89.4424 52.4391 89.4424 52.0518C89.4424 51.7601 89.3148 51.5117 89.0596 51.3066C88.8089 51.097 88.3167 50.8509 87.583 50.5684C86.8857 50.3086 86.389 50.083 86.0928 49.8916C85.8011 49.6956 85.5824 49.4746 85.4365 49.2285C85.2952 48.9824 85.2246 48.6885 85.2246 48.3467C85.2246 47.736 85.473 47.2552 85.9697 46.9043C86.4665 46.5488 87.1478 46.3711 88.0137 46.3711C88.8203 46.3711 89.6087 46.5352 90.3789 46.8633L89.9756 47.7861C89.2236 47.4762 88.5423 47.3213 87.9316 47.3213C87.3939 47.3213 86.9883 47.4056 86.7148 47.5742C86.4414 47.7428 86.3047 47.9753 86.3047 48.2715C86.3047 48.472 86.3548 48.6429 86.4551 48.7842C86.5599 48.9255 86.7262 49.0599 86.9541 49.1875C87.182 49.3151 87.6195 49.4997 88.2666 49.7412C89.1553 50.0648 89.7546 50.3906 90.0645 50.7188C90.3789 51.0469 90.5361 51.4593 90.5361 51.9561ZM96.9961 54L96.7705 52.9336H96.7158C96.3421 53.403 95.9684 53.722 95.5947 53.8906C95.2256 54.0547 94.763 54.1367 94.207 54.1367C93.4642 54.1367 92.8809 53.9453 92.457 53.5625C92.0378 53.1797 91.8281 52.6351 91.8281 51.9287C91.8281 50.4157 93.0381 49.6227 95.458 49.5498L96.7295 49.5088V49.0439C96.7295 48.4561 96.6019 48.0231 96.3467 47.7451C96.096 47.4626 95.6927 47.3213 95.1367 47.3213C94.5124 47.3213 93.806 47.5127 93.0176 47.8955L92.6689 47.0273C93.0381 46.8268 93.4414 46.6696 93.8789 46.5557C94.321 46.4417 94.763 46.3848 95.2051 46.3848C96.0983 46.3848 96.7591 46.583 97.1875 46.9795C97.6204 47.376 97.8369 48.0117 97.8369 48.8867V54H96.9961ZM94.4326 53.2002C95.139 53.2002 95.6927 53.0065 96.0938 52.6191C96.4993 52.2318 96.7021 51.6895 96.7021 50.9922V50.3154L95.5674 50.3633C94.665 50.3952 94.0133 50.5365 93.6123 50.7871C93.2158 51.0332 93.0176 51.4183 93.0176 51.9424C93.0176 52.3525 93.1406 52.6647 93.3867 52.8789C93.6374 53.0931 93.986 53.2002 94.4326 53.2002ZM103.668 46.3848C104.652 46.3848 105.416 46.722 105.958 47.3965C106.505 48.0664 106.778 49.0166 106.778 50.2471C106.778 51.4775 106.503 52.4346 105.951 53.1182C105.404 53.7972 104.643 54.1367 103.668 54.1367C103.18 54.1367 102.734 54.0479 102.328 53.8701C101.927 53.6878 101.59 53.4098 101.316 53.0361H101.234L100.995 54H100.182V43.3633H101.316V45.9473C101.316 46.526 101.298 47.0456 101.262 47.5059H101.316C101.845 46.7585 102.629 46.3848 103.668 46.3848ZM103.504 47.335C102.729 47.335 102.171 47.5583 101.829 48.0049C101.487 48.4469 101.316 49.1943 101.316 50.2471C101.316 51.2998 101.492 52.054 101.843 52.5098C102.194 52.9609 102.757 53.1865 103.531 53.1865C104.229 53.1865 104.748 52.9336 105.09 52.4277C105.432 51.9173 105.603 51.1859 105.603 50.2334C105.603 49.2581 105.432 48.5312 105.09 48.0527C104.748 47.5742 104.219 47.335 103.504 47.335ZM109.902 54H108.768V46.5078H109.902V54ZM108.672 44.4775C108.672 44.2178 108.736 44.0286 108.863 43.9102C108.991 43.7871 109.15 43.7256 109.342 43.7256C109.524 43.7256 109.681 43.7871 109.813 43.9102C109.946 44.0332 110.012 44.2223 110.012 44.4775C110.012 44.7327 109.946 44.9242 109.813 45.0518C109.681 45.1748 109.524 45.2363 109.342 45.2363C109.15 45.2363 108.991 45.1748 108.863 45.0518C108.736 44.9242 108.672 44.7327 108.672 44.4775ZM113.443 54H112.309V43.3633H113.443V54ZM116.984 54H115.85V46.5078H116.984V54ZM115.754 44.4775C115.754 44.2178 115.818 44.0286 115.945 43.9102C116.073 43.7871 116.232 43.7256 116.424 43.7256C116.606 43.7256 116.763 43.7871 116.896 43.9102C117.028 44.0332 117.094 44.2223 117.094 44.4775C117.094 44.7327 117.028 44.9242 116.896 45.0518C116.763 45.1748 116.606 45.2363 116.424 45.2363C116.232 45.2363 116.073 45.1748 115.945 45.0518C115.818 44.9242 115.754 44.7327 115.754 44.4775ZM121.811 53.2002C122.011 53.2002 122.205 53.1865 122.392 53.1592C122.578 53.1273 122.727 53.0954 122.836 53.0635V53.9316C122.713 53.9909 122.531 54.0387 122.289 54.0752C122.052 54.1162 121.838 54.1367 121.646 54.1367C120.197 54.1367 119.473 53.3734 119.473 51.8467V47.3896H118.399V46.8428L119.473 46.3711L119.951 44.7715H120.607V46.5078H122.781V47.3896H120.607V51.7988C120.607 52.25 120.715 52.5964 120.929 52.8379C121.143 53.0794 121.437 53.2002 121.811 53.2002ZM123.15 46.5078H124.367L126.008 50.7803C126.368 51.7555 126.591 52.4596 126.678 52.8926H126.732C126.792 52.6602 126.915 52.2637 127.102 51.7031C127.293 51.138 127.913 49.4062 128.961 46.5078H130.178L126.958 55.0391C126.639 55.8822 126.265 56.4792 125.837 56.8301C125.413 57.1855 124.891 57.3633 124.271 57.3633C123.925 57.3633 123.583 57.3245 123.246 57.2471V56.3379C123.497 56.3926 123.777 56.4199 124.087 56.4199C124.866 56.4199 125.422 55.9824 125.755 55.1074L126.172 54.041L123.15 46.5078ZM136.658 45.9951C136.658 46.3096 136.74 46.6104 136.904 46.8975C137.068 47.18 137.349 47.5218 137.745 47.9229C138.333 47.5811 138.741 47.2666 138.969 46.9795C139.201 46.6878 139.317 46.3529 139.317 45.9746C139.317 45.6237 139.199 45.3389 138.962 45.1201C138.729 44.8968 138.417 44.7852 138.025 44.7852C137.62 44.7852 137.289 44.8945 137.034 45.1133C136.784 45.332 136.658 45.626 136.658 45.9951ZM137.718 53.1182C138.816 53.1182 139.728 52.7673 140.452 52.0654L137.465 49.167C136.959 49.4769 136.601 49.7344 136.392 49.9395C136.182 50.14 136.027 50.3564 135.927 50.5889C135.826 50.8213 135.776 51.0856 135.776 51.3818C135.776 51.915 135.952 52.3389 136.303 52.6533C136.658 52.9632 137.13 53.1182 137.718 53.1182ZM134.601 51.4092C134.601 50.8167 134.758 50.2926 135.072 49.8369C135.391 49.3812 135.961 48.9209 136.781 48.4561C136.394 48.0231 136.13 47.695 135.988 47.4717C135.852 47.2484 135.742 47.016 135.66 46.7744C135.578 46.5329 135.537 46.2822 135.537 46.0225C135.537 45.3389 135.76 44.8057 136.207 44.4229C136.654 44.04 137.276 43.8486 138.073 43.8486C138.812 43.8486 139.393 44.04 139.816 44.4229C140.24 44.8011 140.452 45.3298 140.452 46.0088C140.452 46.4964 140.297 46.9476 139.987 47.3623C139.677 47.7725 139.165 48.1895 138.449 48.6133L141.231 51.2861C141.487 51.0036 141.689 50.6732 141.84 50.2949C141.995 49.9121 142.125 49.4951 142.229 49.0439H143.378C143.068 50.3473 142.601 51.3363 141.977 52.0107L144.021 54H142.455L141.19 52.7832C140.653 53.2663 140.106 53.6126 139.55 53.8223C138.994 54.0319 138.374 54.1367 137.69 54.1367C136.711 54.1367 135.95 53.8952 135.407 53.4121C134.869 52.929 134.601 52.2614 134.601 51.4092ZM151.889 54.1367C150.804 54.1367 149.963 53.804 149.366 53.1387C148.774 52.4688 148.478 51.5231 148.478 50.3018C148.478 49.0485 148.778 48.0801 149.38 47.3965C149.986 46.7129 150.847 46.3711 151.964 46.3711C152.324 46.3711 152.684 46.4098 153.044 46.4873C153.404 46.5648 153.687 46.6559 153.892 46.7607L153.543 47.7246C153.292 47.6243 153.019 47.5423 152.723 47.4785C152.426 47.4102 152.164 47.376 151.937 47.376C150.414 47.376 149.653 48.3467 149.653 50.2881C149.653 51.2087 149.838 51.915 150.207 52.4072C150.581 52.8994 151.132 53.1455 151.861 53.1455C152.486 53.1455 153.126 53.0111 153.782 52.7422V53.7471C153.281 54.0068 152.65 54.1367 151.889 54.1367ZM162.033 50.2471C162.033 51.4684 161.726 52.4232 161.11 53.1113C160.495 53.7949 159.645 54.1367 158.561 54.1367C157.891 54.1367 157.296 53.9795 156.776 53.665C156.257 53.3506 155.856 52.8994 155.573 52.3115C155.291 51.7236 155.149 51.0355 155.149 50.2471C155.149 49.0257 155.455 48.0755 156.065 47.3965C156.676 46.7129 157.524 46.3711 158.608 46.3711C159.657 46.3711 160.488 46.7197 161.104 47.417C161.723 48.1143 162.033 49.0576 162.033 50.2471ZM156.325 50.2471C156.325 51.2041 156.517 51.9333 156.899 52.4346C157.282 52.9359 157.845 53.1865 158.588 53.1865C159.331 53.1865 159.894 52.9382 160.276 52.4414C160.664 51.9401 160.857 51.2087 160.857 50.2471C160.857 49.2946 160.664 48.5723 160.276 48.0801C159.894 47.5833 159.326 47.335 158.574 47.335C157.831 47.335 157.271 47.5788 156.893 48.0664C156.514 48.554 156.325 49.2809 156.325 50.2471ZM173.579 54V49.126C173.579 48.529 173.451 48.0824 173.196 47.7861C172.941 47.4854 172.545 47.335 172.007 47.335C171.3 47.335 170.779 47.5378 170.441 47.9434C170.104 48.349 169.936 48.9733 169.936 49.8164V54H168.801V49.126C168.801 48.529 168.673 48.0824 168.418 47.7861C168.163 47.4854 167.764 47.335 167.222 47.335C166.511 47.335 165.989 47.5492 165.656 47.9775C165.328 48.4014 165.164 49.0986 165.164 50.0693V54H164.029V46.5078H164.952L165.137 47.5332H165.191C165.406 47.1686 165.706 46.8838 166.094 46.6787C166.486 46.4736 166.923 46.3711 167.406 46.3711C168.577 46.3711 169.343 46.7949 169.703 47.6426H169.758C169.981 47.2507 170.305 46.9408 170.729 46.7129C171.152 46.485 171.635 46.3711 172.178 46.3711C173.025 46.3711 173.659 46.5898 174.078 47.0273C174.502 47.4603 174.714 48.1553 174.714 49.1123V54H173.579ZM180.545 54.1367C180.057 54.1367 179.611 54.0479 179.205 53.8701C178.804 53.6878 178.467 53.4098 178.193 53.0361H178.111C178.166 53.4736 178.193 53.8883 178.193 54.2803V57.3633H177.059V46.5078H177.981L178.139 47.5332H178.193C178.485 47.123 178.825 46.8268 179.212 46.6445C179.599 46.4622 180.044 46.3711 180.545 46.3711C181.538 46.3711 182.304 46.7106 182.842 47.3896C183.384 48.0687 183.655 49.0212 183.655 50.2471C183.655 51.4775 183.38 52.4346 182.828 53.1182C182.281 53.7972 181.52 54.1367 180.545 54.1367ZM180.381 47.335C179.615 47.335 179.062 47.5469 178.72 47.9707C178.378 48.3945 178.202 49.069 178.193 49.9941V50.2471C178.193 51.2998 178.369 52.054 178.72 52.5098C179.071 52.9609 179.633 53.1865 180.408 53.1865C181.055 53.1865 181.561 52.9245 181.926 52.4004C182.295 51.8763 182.479 51.154 182.479 50.2334C182.479 49.2992 182.295 48.5837 181.926 48.0869C181.561 47.5856 181.046 47.335 180.381 47.335ZM186.779 54H185.645V43.3633H186.779V54ZM192.351 54.1367C191.243 54.1367 190.368 53.7995 189.726 53.125C189.088 52.4505 188.769 51.514 188.769 50.3154C188.769 49.1077 189.065 48.1484 189.657 47.4375C190.254 46.7266 191.054 46.3711 192.057 46.3711C192.995 46.3711 193.738 46.681 194.285 47.3008C194.832 47.916 195.105 48.7295 195.105 49.7412V50.459H189.944C189.967 51.3385 190.188 52.0062 190.607 52.4619C191.031 52.9176 191.626 53.1455 192.392 53.1455C193.198 53.1455 193.996 52.9769 194.784 52.6396V53.6514C194.383 53.8245 194.003 53.9476 193.643 54.0205C193.287 54.098 192.856 54.1367 192.351 54.1367ZM192.043 47.3213C191.441 47.3213 190.961 47.5173 190.601 47.9092C190.245 48.3011 190.035 48.8434 189.972 49.5361H193.889C193.889 48.8206 193.729 48.2738 193.41 47.8955C193.091 47.5127 192.635 47.3213 192.043 47.3213ZM199.467 53.2002C199.667 53.2002 199.861 53.1865 200.048 53.1592C200.235 53.1273 200.383 53.0954 200.492 53.0635V53.9316C200.369 53.9909 200.187 54.0387 199.945 54.0752C199.708 54.1162 199.494 54.1367 199.303 54.1367C197.854 54.1367 197.129 53.3734 197.129 51.8467V47.3896H196.056V46.8428L197.129 46.3711L197.607 44.7715H198.264V46.5078H200.438V47.3896H198.264V51.7988C198.264 52.25 198.371 52.5964 198.585 52.8379C198.799 53.0794 199.093 53.2002 199.467 53.2002ZM203.131 54H201.996V46.5078H203.131V54ZM201.9 44.4775C201.9 44.2178 201.964 44.0286 202.092 43.9102C202.219 43.7871 202.379 43.7256 202.57 43.7256C202.753 43.7256 202.91 43.7871 203.042 43.9102C203.174 44.0332 203.24 44.2223 203.24 44.4775C203.24 44.7327 203.174 44.9242 203.042 45.0518C202.91 45.1748 202.753 45.2363 202.57 45.2363C202.379 45.2363 202.219 45.1748 202.092 45.0518C201.964 44.9242 201.9 44.7327 201.9 44.4775ZM212.004 50.2471C212.004 51.4684 211.696 52.4232 211.081 53.1113C210.466 53.7949 209.616 54.1367 208.531 54.1367C207.861 54.1367 207.267 53.9795 206.747 53.665C206.228 53.3506 205.826 52.8994 205.544 52.3115C205.261 51.7236 205.12 51.0355 205.12 50.2471C205.12 49.0257 205.425 48.0755 206.036 47.3965C206.647 46.7129 207.494 46.3711 208.579 46.3711C209.627 46.3711 210.459 46.7197 211.074 47.417C211.694 48.1143 212.004 49.0576 212.004 50.2471ZM206.296 50.2471C206.296 51.2041 206.487 51.9333 206.87 52.4346C207.253 52.9359 207.816 53.1865 208.559 53.1865C209.301 53.1865 209.864 52.9382 210.247 52.4414C210.634 51.9401 210.828 51.2087 210.828 50.2471C210.828 49.2946 210.634 48.5723 210.247 48.0801C209.864 47.5833 209.297 47.335 208.545 47.335C207.802 47.335 207.242 47.5788 206.863 48.0664C206.485 48.554 206.296 49.2809 206.296 50.2471ZM219.127 54V49.1533C219.127 48.5426 218.988 48.0869 218.71 47.7861C218.432 47.4854 217.997 47.335 217.404 47.335C216.62 47.335 216.046 47.5469 215.682 47.9707C215.317 48.3945 215.135 49.0941 215.135 50.0693V54H214V46.5078H214.923L215.107 47.5332H215.162C215.395 47.1641 215.72 46.8792 216.14 46.6787C216.559 46.4736 217.026 46.3711 217.541 46.3711C218.443 46.3711 219.122 46.5898 219.578 47.0273C220.034 47.4603 220.262 48.1553 220.262 49.1123V54H219.127Z" fill="#B45054"/>
</svg>
