<svg width="230" height="130" viewBox="0 0 230 130" fill="none" xmlns="http://www.w3.org/2000/svg">
<line x1="121" y1="70" x2="121" y2="128" stroke="#D27984" stroke-width="2"/>
<circle cx="121.5" cy="126.5" r="3.5" fill="#B45054"/>
<rect x="1" y="1" width="228" height="68" rx="6" fill="#F9E6E9" stroke="#D27984" stroke-width="2"/>
<path d="M17.4453 29L14.1328 19.4609H14.0703C14.1589 20.8776 14.2031 22.2057 14.2031 23.4453V29H12.5078V17.5781H15.1406L18.3125 26.6641H18.3594L21.625 17.5781H24.2656V29H22.4688V23.3516C22.4688 22.7839 22.4818 22.0443 22.5078 21.1328C22.5391 20.2214 22.5651 19.6693 22.5859 19.4766H22.5234L19.0938 29H17.4453ZM32.4844 29L32.1172 27.7969H32.0547C31.638 28.3229 31.2188 28.6823 30.7969 28.875C30.375 29.0625 29.8333 29.1562 29.1719 29.1562C28.3229 29.1562 27.6589 28.9271 27.1797 28.4688C26.7057 28.0104 26.4688 27.362 26.4688 26.5234C26.4688 25.6328 26.7995 24.9609 27.4609 24.5078C28.1224 24.0547 29.1302 23.8073 30.4844 23.7656L31.9766 23.7188V23.2578C31.9766 22.7057 31.8464 22.2943 31.5859 22.0234C31.3307 21.7474 30.9323 21.6094 30.3906 21.6094C29.9479 21.6094 29.5234 21.6745 29.1172 21.8047C28.7109 21.9349 28.3203 22.0885 27.9453 22.2656L27.3516 20.9531C27.8203 20.7083 28.3333 20.5234 28.8906 20.3984C29.4479 20.2682 29.974 20.2031 30.4688 20.2031C31.5677 20.2031 32.3958 20.4427 32.9531 20.9219C33.5156 21.401 33.7969 22.1536 33.7969 23.1797V29H32.4844ZM29.75 27.75C30.4167 27.75 30.9505 27.5651 31.3516 27.1953C31.7578 26.8203 31.9609 26.2969 31.9609 25.625V24.875L30.8516 24.9219C29.987 24.9531 29.3568 25.099 28.9609 25.3594C28.5703 25.6146 28.375 26.0078 28.375 26.5391C28.375 26.9245 28.4896 27.224 28.7188 27.4375C28.9479 27.6458 29.2917 27.75 29.75 27.75ZM42.1641 26.5391C42.1641 27.3828 41.8568 28.0312 41.2422 28.4844C40.6276 28.9323 39.7474 29.1562 38.6016 29.1562C37.4505 29.1562 36.526 28.9818 35.8281 28.6328V27.0469C36.8438 27.5156 37.7891 27.75 38.6641 27.75C39.7943 27.75 40.3594 27.4089 40.3594 26.7266C40.3594 26.5078 40.2969 26.3255 40.1719 26.1797C40.0469 26.0339 39.8411 25.8828 39.5547 25.7266C39.2682 25.5703 38.8698 25.3932 38.3594 25.1953C37.3646 24.8099 36.6901 24.4245 36.3359 24.0391C35.987 23.6536 35.8125 23.1536 35.8125 22.5391C35.8125 21.7995 36.1094 21.2266 36.7031 20.8203C37.3021 20.4089 38.1146 20.2031 39.1406 20.2031C40.1562 20.2031 41.1172 20.4089 42.0234 20.8203L41.4297 22.2031C40.4974 21.8177 39.7135 21.625 39.0781 21.625C38.1094 21.625 37.625 21.901 37.625 22.4531C37.625 22.724 37.75 22.9531 38 23.1406C38.2552 23.3281 38.8073 23.5859 39.6562 23.9141C40.3698 24.1901 40.888 24.4427 41.2109 24.6719C41.5339 24.901 41.7734 25.1667 41.9297 25.4688C42.0859 25.7656 42.1641 26.1224 42.1641 26.5391ZM45.9297 24.4375L46.9688 23.1406L49.5781 20.3594H51.6953L48.2188 24.0703L51.9141 29H49.7578L46.9844 25.2109L45.9766 26.0391V29H44.1562V16.8438H45.9766V22.7734L45.8828 24.4375H45.9297ZM57.0859 29.1562C55.7422 29.1562 54.6901 28.7656 53.9297 27.9844C53.1745 27.1979 52.7969 26.1172 52.7969 24.7422C52.7969 23.3307 53.1484 22.2214 53.8516 21.4141C54.5547 20.6068 55.5208 20.2031 56.75 20.2031C57.8906 20.2031 58.7917 20.5495 59.4531 21.2422C60.1146 21.9349 60.4453 22.888 60.4453 24.1016V25.0938H54.6875C54.7135 25.9323 54.9401 26.5781 55.3672 27.0312C55.7943 27.4792 56.3958 27.7031 57.1719 27.7031C57.6823 27.7031 58.1562 27.6562 58.5938 27.5625C59.0365 27.4635 59.5104 27.3021 60.0156 27.0781V28.5703C59.5677 28.7839 59.1146 28.9349 58.6562 29.0234C58.1979 29.112 57.6745 29.1562 57.0859 29.1562ZM56.75 21.5938C56.1667 21.5938 55.6979 21.7786 55.3438 22.1484C54.9948 22.5182 54.7865 23.0573 54.7188 23.7656H58.6406C58.6302 23.0521 58.4583 22.513 58.125 22.1484C57.7917 21.7786 57.3333 21.5938 56.75 21.5938ZM65.4453 29.1562C64.3672 29.1562 63.526 28.7656 62.9219 27.9844C62.3177 27.2031 62.0156 26.1068 62.0156 24.6953C62.0156 23.2786 62.3203 22.1771 62.9297 21.3906C63.5443 20.599 64.3932 20.2031 65.4766 20.2031C66.612 20.2031 67.4766 20.6224 68.0703 21.4609H68.1641C68.0755 20.8411 68.0312 20.3516 68.0312 19.9922V16.8438H69.875V29H68.4375L68.1172 27.8672H68.0312C67.4427 28.7266 66.5807 29.1562 65.4453 29.1562ZM65.9375 27.6719C66.6927 27.6719 67.2422 27.4609 67.5859 27.0391C67.9297 26.612 68.1068 25.9219 68.1172 24.9688V24.7109C68.1172 23.6224 67.9401 22.849 67.5859 22.3906C67.2318 21.9323 66.6771 21.7031 65.9219 21.7031C65.276 21.7031 64.7786 21.9661 64.4297 22.4922C64.0807 23.013 63.9062 23.7578 63.9062 24.7266C63.9062 25.6849 64.0755 26.4167 64.4141 26.9219C64.7526 27.4219 65.2604 27.6719 65.9375 27.6719ZM78.4922 29H76.6562V20.3594H78.4922V29ZM76.5469 18.0703C76.5469 17.7422 76.6354 17.4896 76.8125 17.3125C76.9948 17.1354 77.2526 17.0469 77.5859 17.0469C77.9089 17.0469 78.1589 17.1354 78.3359 17.3125C78.5182 17.4896 78.6094 17.7422 78.6094 18.0703C78.6094 18.3828 78.5182 18.6302 78.3359 18.8125C78.1589 18.9896 77.9089 19.0781 77.5859 19.0781C77.2526 19.0781 76.9948 18.9896 76.8125 18.8125C76.6354 18.6302 76.5469 18.3828 76.5469 18.0703ZM88.7266 29H86.8828V23.6875C86.8828 23.0208 86.7474 22.5234 86.4766 22.1953C86.2109 21.8672 85.7865 21.7031 85.2031 21.7031C84.4271 21.7031 83.8594 21.9323 83.5 22.3906C83.1406 22.849 82.9609 23.6172 82.9609 24.6953V29H81.125V20.3594H82.5625L82.8203 21.4922H82.9141C83.1745 21.0807 83.5443 20.763 84.0234 20.5391C84.5026 20.3151 85.0339 20.2031 85.6172 20.2031C87.6901 20.2031 88.7266 21.2578 88.7266 23.3672V29ZM95.6641 29.1562C94.5703 29.1562 93.7214 28.763 93.1172 27.9766H93.0078C93.0807 28.7057 93.1172 29.1484 93.1172 29.3047V32.8438H91.2812V20.3594H92.7656C92.8073 20.5208 92.8932 20.9062 93.0234 21.5156H93.1172C93.6901 20.6406 94.5495 20.2031 95.6953 20.2031C96.7734 20.2031 97.612 20.5938 98.2109 21.375C98.8151 22.1562 99.1172 23.2526 99.1172 24.6641C99.1172 26.0755 98.8099 27.1771 98.1953 27.9688C97.5859 28.7604 96.7422 29.1562 95.6641 29.1562ZM95.2188 21.7031C94.4896 21.7031 93.9557 21.9167 93.6172 22.3438C93.2839 22.7708 93.1172 23.4531 93.1172 24.3906V24.6641C93.1172 25.7161 93.2839 26.4792 93.6172 26.9531C93.9505 27.4219 94.4948 27.6562 95.25 27.6562C95.8854 27.6562 96.375 27.3958 96.7188 26.875C97.0625 26.3542 97.2344 25.612 97.2344 24.6484C97.2344 23.6797 97.0625 22.9479 96.7188 22.4531C96.3802 21.9531 95.8802 21.7031 95.2188 21.7031ZM107.344 29L107.086 27.8672H106.992C106.737 28.2682 106.372 28.5833 105.898 28.8125C105.43 29.0417 104.893 29.1562 104.289 29.1562C103.242 29.1562 102.461 28.8958 101.945 28.375C101.43 27.8542 101.172 27.0651 101.172 26.0078V20.3594H103.023V25.6875C103.023 26.349 103.159 26.8464 103.43 27.1797C103.701 27.5078 104.125 27.6719 104.703 27.6719C105.474 27.6719 106.039 27.4427 106.398 26.9844C106.763 26.5208 106.945 25.7474 106.945 24.6641V20.3594H108.789V29H107.344ZM114.625 27.6719C115.073 27.6719 115.521 27.6016 115.969 27.4609V28.8438C115.766 28.9323 115.503 29.0052 115.18 29.0625C114.862 29.125 114.531 29.1562 114.188 29.1562C112.448 29.1562 111.578 28.2396 111.578 26.4062V21.75H110.398V20.9375L111.664 20.2656L112.289 18.4375H113.422V20.3594H115.883V21.75H113.422V26.375C113.422 26.8177 113.531 27.1458 113.75 27.3594C113.974 27.5677 114.266 27.6719 114.625 27.6719ZM123.508 26.5391C123.508 27.3828 123.201 28.0312 122.586 28.4844C121.971 28.9323 121.091 29.1562 119.945 29.1562C118.794 29.1562 117.87 28.9818 117.172 28.6328V27.0469C118.188 27.5156 119.133 27.75 120.008 27.75C121.138 27.75 121.703 27.4089 121.703 26.7266C121.703 26.5078 121.641 26.3255 121.516 26.1797C121.391 26.0339 121.185 25.8828 120.898 25.7266C120.612 25.5703 120.214 25.3932 119.703 25.1953C118.708 24.8099 118.034 24.4245 117.68 24.0391C117.331 23.6536 117.156 23.1536 117.156 22.5391C117.156 21.7995 117.453 21.2266 118.047 20.8203C118.646 20.4089 119.458 20.2031 120.484 20.2031C121.5 20.2031 122.461 20.4089 123.367 20.8203L122.773 22.2031C121.841 21.8177 121.057 21.625 120.422 21.625C119.453 21.625 118.969 21.901 118.969 22.4531C118.969 22.724 119.094 22.9531 119.344 23.1406C119.599 23.3281 120.151 23.5859 121 23.9141C121.714 24.1901 122.232 24.4427 122.555 24.6719C122.878 24.901 123.117 25.1667 123.273 25.4688C123.43 25.7656 123.508 26.1224 123.508 26.5391Z" fill="#81363E"/>
<path d="M16.7969 54L13.4062 45.1406H13.3516C13.4154 45.8424 13.4473 46.6764 13.4473 47.6426V54H12.374V44.0059H14.124L17.2891 52.25H17.3438L20.5361 44.0059H22.2725V54H21.1104V47.5605C21.1104 46.8223 21.1423 46.0202 21.2061 45.1543H21.1514L17.7334 54H16.7969ZM29.457 54L29.2314 52.9336H29.1768C28.8031 53.403 28.4294 53.722 28.0557 53.8906C27.6865 54.0547 27.224 54.1367 26.668 54.1367C25.9251 54.1367 25.3418 53.9453 24.918 53.5625C24.4987 53.1797 24.2891 52.6351 24.2891 51.9287C24.2891 50.4157 25.499 49.6227 27.9189 49.5498L29.1904 49.5088V49.0439C29.1904 48.4561 29.0628 48.0231 28.8076 47.7451C28.557 47.4626 28.1536 47.3213 27.5977 47.3213C26.9733 47.3213 26.2669 47.5127 25.4785 47.8955L25.1299 47.0273C25.499 46.8268 25.9023 46.6696 26.3398 46.5557C26.7819 46.4417 27.224 46.3848 27.666 46.3848C28.5592 46.3848 29.2201 46.583 29.6484 46.9795C30.0814 47.376 30.2979 48.0117 30.2979 48.8867V54H29.457ZM26.8936 53.2002C27.5999 53.2002 28.1536 53.0065 28.5547 52.6191C28.9603 52.2318 29.1631 51.6895 29.1631 50.9922V50.3154L28.0283 50.3633C27.126 50.3952 26.4743 50.5365 26.0732 50.7871C25.6768 51.0332 25.4785 51.4183 25.4785 51.9424C25.4785 52.3525 25.6016 52.6647 25.8477 52.8789C26.0983 53.0931 26.4469 53.2002 26.8936 53.2002ZM33.7637 50.165C33.9596 49.887 34.2581 49.5225 34.6592 49.0713L37.0791 46.5078H38.4258L35.3906 49.7002L38.6377 54H37.2637L34.6182 50.459L33.7637 51.1973V54H32.6426V43.3633H33.7637V49.0029C33.7637 49.2536 33.7454 49.641 33.709 50.165H33.7637ZM43.1631 54.1367C42.0557 54.1367 41.1807 53.7995 40.5381 53.125C39.9001 52.4505 39.5811 51.514 39.5811 50.3154C39.5811 49.1077 39.8773 48.1484 40.4697 47.4375C41.0667 46.7266 41.8665 46.3711 42.8691 46.3711C43.8079 46.3711 44.5508 46.681 45.0977 47.3008C45.6445 47.916 45.918 48.7295 45.918 49.7412V50.459H40.7568C40.7796 51.3385 41.0007 52.0062 41.4199 52.4619C41.8438 52.9176 42.4385 53.1455 43.2041 53.1455C44.0107 53.1455 44.8083 52.9769 45.5967 52.6396V53.6514C45.1956 53.8245 44.8151 53.9476 44.4551 54.0205C44.0996 54.098 43.6689 54.1367 43.1631 54.1367ZM42.8555 47.3213C42.2539 47.3213 41.7731 47.5173 41.4131 47.9092C41.0576 48.3011 40.848 48.8434 40.7842 49.5361H44.7012C44.7012 48.8206 44.5417 48.2738 44.2227 47.8955C43.9036 47.5127 43.4479 47.3213 42.8555 47.3213ZM52.6924 51.9561C52.6924 52.6533 52.4326 53.1911 51.9131 53.5693C51.3936 53.9476 50.6644 54.1367 49.7256 54.1367C48.7321 54.1367 47.9574 53.9795 47.4014 53.665V52.6123C47.7614 52.7946 48.1465 52.9382 48.5566 53.043C48.9714 53.1478 49.3701 53.2002 49.7529 53.2002C50.3454 53.2002 50.8011 53.1068 51.1201 52.9199C51.4391 52.7285 51.5986 52.4391 51.5986 52.0518C51.5986 51.7601 51.471 51.5117 51.2158 51.3066C50.9652 51.097 50.473 50.8509 49.7393 50.5684C49.042 50.3086 48.5452 50.083 48.249 49.8916C47.9574 49.6956 47.7386 49.4746 47.5928 49.2285C47.4515 48.9824 47.3809 48.6885 47.3809 48.3467C47.3809 47.736 47.6292 47.2552 48.126 46.9043C48.6227 46.5488 49.304 46.3711 50.1699 46.3711C50.9766 46.3711 51.765 46.5352 52.5352 46.8633L52.1318 47.7861C51.3799 47.4762 50.6986 47.3213 50.0879 47.3213C49.5501 47.3213 49.1445 47.4056 48.8711 47.5742C48.5977 47.7428 48.4609 47.9753 48.4609 48.2715C48.4609 48.472 48.5111 48.6429 48.6113 48.7842C48.7161 48.9255 48.8825 49.0599 49.1104 49.1875C49.3382 49.3151 49.7757 49.4997 50.4229 49.7412C51.3115 50.0648 51.9108 50.3906 52.2207 50.7188C52.5352 51.0469 52.6924 51.4593 52.6924 51.9561ZM61.5586 47.3896H59.6514V54H58.5166V47.3896H57.1768V46.877L58.5166 46.4668V46.0498C58.5166 44.2087 59.321 43.2881 60.9297 43.2881C61.3262 43.2881 61.791 43.3678 62.3242 43.5273L62.0303 44.4365C61.5928 44.2952 61.2191 44.2246 60.9092 44.2246C60.4808 44.2246 60.1641 44.3682 59.959 44.6553C59.7539 44.9378 59.6514 45.3936 59.6514 46.0225V46.5078H61.5586V47.3896ZM64.0605 54H62.9258V46.5078H64.0605V54ZM62.8301 44.4775C62.8301 44.2178 62.8939 44.0286 63.0215 43.9102C63.1491 43.7871 63.3086 43.7256 63.5 43.7256C63.6823 43.7256 63.8395 43.7871 63.9717 43.9102C64.1038 44.0332 64.1699 44.2223 64.1699 44.4775C64.1699 44.7327 64.1038 44.9242 63.9717 45.0518C63.8395 45.1748 63.6823 45.2363 63.5 45.2363C63.3086 45.2363 63.1491 45.1748 63.0215 45.0518C62.8939 44.9242 62.8301 44.7327 62.8301 44.4775ZM67.6016 54H66.4668V43.3633H67.6016V54ZM71.1426 54H70.0078V43.3633H71.1426V54ZM74.6836 54H73.5488V46.5078H74.6836V54ZM73.4531 44.4775C73.4531 44.2178 73.5169 44.0286 73.6445 43.9102C73.7721 43.7871 73.9316 43.7256 74.123 43.7256C74.3053 43.7256 74.4626 43.7871 74.5947 43.9102C74.7269 44.0332 74.793 44.2223 74.793 44.4775C74.793 44.7327 74.7269 44.9242 74.5947 45.0518C74.4626 45.1748 74.3053 45.2363 74.123 45.2363C73.9316 45.2363 73.7721 45.1748 73.6445 45.0518C73.5169 44.9242 73.4531 44.7327 73.4531 44.4775ZM82.2168 54V49.1533C82.2168 48.5426 82.0778 48.0869 81.7998 47.7861C81.5218 47.4854 81.0866 47.335 80.4941 47.335C79.7103 47.335 79.1361 47.5469 78.7715 47.9707C78.4069 48.3945 78.2246 49.0941 78.2246 50.0693V54H77.0898V46.5078H78.0127L78.1973 47.5332H78.252C78.4844 47.1641 78.8102 46.8792 79.2295 46.6787C79.6488 46.4736 80.1159 46.3711 80.6309 46.3711C81.5332 46.3711 82.2122 46.5898 82.668 47.0273C83.1237 47.4603 83.3516 48.1553 83.3516 49.1123V54H82.2168ZM91.8213 46.5078V47.2256L90.4336 47.3896C90.5612 47.5492 90.6751 47.7588 90.7754 48.0186C90.8757 48.2738 90.9258 48.5632 90.9258 48.8867C90.9258 49.6204 90.6751 50.2061 90.1738 50.6436C89.6725 51.0811 88.9844 51.2998 88.1094 51.2998C87.8861 51.2998 87.6764 51.2816 87.4805 51.2451C86.9974 51.5003 86.7559 51.8216 86.7559 52.209C86.7559 52.4141 86.8402 52.5667 87.0088 52.667C87.1774 52.7627 87.4668 52.8105 87.877 52.8105H89.2031C90.0143 52.8105 90.6364 52.9814 91.0693 53.3232C91.5068 53.665 91.7256 54.1618 91.7256 54.8135C91.7256 55.6429 91.3929 56.2741 90.7275 56.707C90.0622 57.1445 89.0915 57.3633 87.8154 57.3633C86.8356 57.3633 86.0791 57.181 85.5459 56.8164C85.0173 56.4518 84.7529 55.9368 84.7529 55.2715C84.7529 54.8158 84.8988 54.4215 85.1904 54.0889C85.4821 53.7562 85.8923 53.5306 86.4209 53.4121C86.2295 53.3255 86.0677 53.1911 85.9355 53.0088C85.8079 52.8265 85.7441 52.6146 85.7441 52.373C85.7441 52.0996 85.8171 51.8604 85.9629 51.6553C86.1087 51.4502 86.3389 51.252 86.6533 51.0605C86.266 50.901 85.9492 50.6299 85.7031 50.2471C85.4616 49.8643 85.3408 49.4268 85.3408 48.9346C85.3408 48.1143 85.5869 47.4831 86.0791 47.041C86.5713 46.5944 87.2686 46.3711 88.1709 46.3711C88.5628 46.3711 88.916 46.4167 89.2305 46.5078H91.8213ZM85.8467 55.2578C85.8467 55.6634 86.0176 55.971 86.3594 56.1807C86.7012 56.3903 87.1911 56.4951 87.8291 56.4951C88.7816 56.4951 89.4857 56.3516 89.9414 56.0645C90.4017 55.7819 90.6318 55.3968 90.6318 54.9092C90.6318 54.5036 90.5065 54.221 90.2559 54.0615C90.0052 53.9066 89.5335 53.8291 88.8408 53.8291H87.4805C86.9655 53.8291 86.5645 53.9521 86.2773 54.1982C85.9902 54.4443 85.8467 54.7975 85.8467 55.2578ZM86.4619 48.9072C86.4619 49.4313 86.61 49.8278 86.9062 50.0967C87.2025 50.3656 87.6149 50.5 88.1436 50.5C89.251 50.5 89.8047 49.9622 89.8047 48.8867C89.8047 47.7611 89.2441 47.1982 88.123 47.1982C87.5898 47.1982 87.1797 47.3418 86.8926 47.6289C86.6055 47.916 86.4619 48.3421 86.4619 48.9072ZM99.416 53.2002C99.6165 53.2002 99.8102 53.1865 99.9971 53.1592C100.184 53.1273 100.332 53.0954 100.441 53.0635V53.9316C100.318 53.9909 100.136 54.0387 99.8945 54.0752C99.6576 54.1162 99.4434 54.1367 99.252 54.1367C97.8027 54.1367 97.0781 53.3734 97.0781 51.8467V47.3896H96.0049V46.8428L97.0781 46.3711L97.5566 44.7715H98.2129V46.5078H100.387V47.3896H98.2129V51.7988C98.2129 52.25 98.32 52.5964 98.5342 52.8379C98.7484 53.0794 99.0423 53.2002 99.416 53.2002ZM107.072 54V49.1533C107.072 48.5426 106.933 48.0869 106.655 47.7861C106.377 47.4854 105.942 47.335 105.35 47.335C104.561 47.335 103.985 47.5492 103.62 47.9775C103.26 48.4059 103.08 49.1077 103.08 50.083V54H101.945V43.3633H103.08V46.583C103.08 46.9704 103.062 47.2917 103.025 47.5469H103.094C103.317 47.1868 103.634 46.9043 104.044 46.6992C104.459 46.4896 104.93 46.3848 105.459 46.3848C106.375 46.3848 107.061 46.6035 107.517 47.041C107.977 47.474 108.207 48.1644 108.207 49.1123V54H107.072ZM113.71 54.1367C112.603 54.1367 111.728 53.7995 111.085 53.125C110.447 52.4505 110.128 51.514 110.128 50.3154C110.128 49.1077 110.424 48.1484 111.017 47.4375C111.614 46.7266 112.413 46.3711 113.416 46.3711C114.355 46.3711 115.098 46.681 115.645 47.3008C116.191 47.916 116.465 48.7295 116.465 49.7412V50.459H111.304C111.326 51.3385 111.548 52.0062 111.967 52.4619C112.391 52.9176 112.985 53.1455 113.751 53.1455C114.558 53.1455 115.355 52.9769 116.144 52.6396V53.6514C115.743 53.8245 115.362 53.9476 115.002 54.0205C114.646 54.098 114.216 54.1367 113.71 54.1367ZM113.402 47.3213C112.801 47.3213 112.32 47.5173 111.96 47.9092C111.604 48.3011 111.395 48.8434 111.331 49.5361H115.248C115.248 48.8206 115.089 48.2738 114.77 47.8955C114.451 47.5127 113.995 47.3213 113.402 47.3213ZM125.42 47.3896H123.513V54H122.378V47.3896H121.038V46.877L122.378 46.4668V46.0498C122.378 44.2087 123.182 43.2881 124.791 43.2881C125.188 43.2881 125.652 43.3678 126.186 43.5273L125.892 44.4365C125.454 44.2952 125.08 44.2246 124.771 44.2246C124.342 44.2246 124.025 44.3682 123.82 44.6553C123.615 44.9378 123.513 45.3936 123.513 46.0225V46.5078H125.42V47.3896ZM133.254 50.2471C133.254 51.4684 132.946 52.4232 132.331 53.1113C131.716 53.7949 130.866 54.1367 129.781 54.1367C129.111 54.1367 128.517 53.9795 127.997 53.665C127.478 53.3506 127.076 52.8994 126.794 52.3115C126.511 51.7236 126.37 51.0355 126.37 50.2471C126.37 49.0257 126.675 48.0755 127.286 47.3965C127.897 46.7129 128.744 46.3711 129.829 46.3711C130.877 46.3711 131.709 46.7197 132.324 47.417C132.944 48.1143 133.254 49.0576 133.254 50.2471ZM127.546 50.2471C127.546 51.2041 127.737 51.9333 128.12 52.4346C128.503 52.9359 129.066 53.1865 129.809 53.1865C130.551 53.1865 131.114 52.9382 131.497 52.4414C131.884 51.9401 132.078 51.2087 132.078 50.2471C132.078 49.2946 131.884 48.5723 131.497 48.0801C131.114 47.5833 130.547 47.335 129.795 47.335C129.052 47.335 128.492 47.5788 128.113 48.0664C127.735 48.554 127.546 49.2809 127.546 50.2471ZM138.668 46.3711C139.001 46.3711 139.299 46.3984 139.563 46.4531L139.406 47.5059C139.096 47.4375 138.823 47.4033 138.586 47.4033C137.98 47.4033 137.46 47.6494 137.027 48.1416C136.599 48.6338 136.385 49.2467 136.385 49.9805V54H135.25V46.5078H136.187L136.316 47.8955H136.371C136.649 47.4079 136.984 47.0319 137.376 46.7676C137.768 46.5033 138.199 46.3711 138.668 46.3711ZM150.515 54V49.126C150.515 48.529 150.387 48.0824 150.132 47.7861C149.877 47.4854 149.48 47.335 148.942 47.335C148.236 47.335 147.714 47.5378 147.377 47.9434C147.04 48.349 146.871 48.9733 146.871 49.8164V54H145.736V49.126C145.736 48.529 145.609 48.0824 145.354 47.7861C145.098 47.4854 144.7 47.335 144.157 47.335C143.446 47.335 142.924 47.5492 142.592 47.9775C142.264 48.4014 142.1 49.0986 142.1 50.0693V54H140.965V46.5078H141.888L142.072 47.5332H142.127C142.341 47.1686 142.642 46.8838 143.029 46.6787C143.421 46.4736 143.859 46.3711 144.342 46.3711C145.513 46.3711 146.279 46.7949 146.639 47.6426H146.693C146.917 47.2507 147.24 46.9408 147.664 46.7129C148.088 46.485 148.571 46.3711 149.113 46.3711C149.961 46.3711 150.594 46.5898 151.014 47.0273C151.438 47.4603 151.649 48.1553 151.649 49.1123V54H150.515ZM160.796 54.1367C159.688 54.1367 158.813 53.7995 158.171 53.125C157.533 52.4505 157.214 51.514 157.214 50.3154C157.214 49.1077 157.51 48.1484 158.103 47.4375C158.7 46.7266 159.499 46.3711 160.502 46.3711C161.441 46.3711 162.184 46.681 162.73 47.3008C163.277 47.916 163.551 48.7295 163.551 49.7412V50.459H158.39C158.412 51.3385 158.633 52.0062 159.053 52.4619C159.477 52.9176 160.071 53.1455 160.837 53.1455C161.644 53.1455 162.441 52.9769 163.229 52.6396V53.6514C162.828 53.8245 162.448 53.9476 162.088 54.0205C161.732 54.098 161.302 54.1367 160.796 54.1367ZM160.488 47.3213C159.887 47.3213 159.406 47.5173 159.046 47.9092C158.69 48.3011 158.481 48.8434 158.417 49.5361H162.334C162.334 48.8206 162.174 48.2738 161.855 47.8955C161.536 47.5127 161.081 47.3213 160.488 47.3213ZM170.1 54L169.874 52.9336H169.819C169.446 53.403 169.072 53.722 168.698 53.8906C168.329 54.0547 167.867 54.1367 167.311 54.1367C166.568 54.1367 165.984 53.9453 165.561 53.5625C165.141 53.1797 164.932 52.6351 164.932 51.9287C164.932 50.4157 166.142 49.6227 168.562 49.5498L169.833 49.5088V49.0439C169.833 48.4561 169.705 48.0231 169.45 47.7451C169.2 47.4626 168.796 47.3213 168.24 47.3213C167.616 47.3213 166.91 47.5127 166.121 47.8955L165.772 47.0273C166.142 46.8268 166.545 46.6696 166.982 46.5557C167.424 46.4417 167.867 46.3848 168.309 46.3848C169.202 46.3848 169.863 46.583 170.291 46.9795C170.724 47.376 170.94 48.0117 170.94 48.8867V54H170.1ZM167.536 53.2002C168.243 53.2002 168.796 53.0065 169.197 52.6191C169.603 52.2318 169.806 51.6895 169.806 50.9922V50.3154L168.671 50.3633C167.769 50.3952 167.117 50.5365 166.716 50.7871C166.319 51.0332 166.121 51.4183 166.121 51.9424C166.121 52.3525 166.244 52.6647 166.49 52.8789C166.741 53.0931 167.09 53.2002 167.536 53.2002ZM178.118 51.9561C178.118 52.6533 177.858 53.1911 177.339 53.5693C176.819 53.9476 176.09 54.1367 175.151 54.1367C174.158 54.1367 173.383 53.9795 172.827 53.665V52.6123C173.187 52.7946 173.572 52.9382 173.982 53.043C174.397 53.1478 174.796 53.2002 175.179 53.2002C175.771 53.2002 176.227 53.1068 176.546 52.9199C176.865 52.7285 177.024 52.4391 177.024 52.0518C177.024 51.7601 176.897 51.5117 176.642 51.3066C176.391 51.097 175.899 50.8509 175.165 50.5684C174.468 50.3086 173.971 50.083 173.675 49.8916C173.383 49.6956 173.164 49.4746 173.019 49.2285C172.877 48.9824 172.807 48.6885 172.807 48.3467C172.807 47.736 173.055 47.2552 173.552 46.9043C174.049 46.5488 174.73 46.3711 175.596 46.3711C176.402 46.3711 177.191 46.5352 177.961 46.8633L177.558 47.7861C176.806 47.4762 176.124 47.3213 175.514 47.3213C174.976 47.3213 174.57 47.4056 174.297 47.5742C174.023 47.7428 173.887 47.9753 173.887 48.2715C173.887 48.472 173.937 48.6429 174.037 48.7842C174.142 48.9255 174.308 49.0599 174.536 49.1875C174.764 49.3151 175.201 49.4997 175.849 49.7412C176.737 50.0648 177.337 50.3906 177.646 50.7188C177.961 51.0469 178.118 51.4593 178.118 51.9561ZM181.105 54H179.971V46.5078H181.105V54ZM179.875 44.4775C179.875 44.2178 179.939 44.0286 180.066 43.9102C180.194 43.7871 180.354 43.7256 180.545 43.7256C180.727 43.7256 180.884 43.7871 181.017 43.9102C181.149 44.0332 181.215 44.2223 181.215 44.4775C181.215 44.7327 181.149 44.9242 181.017 45.0518C180.884 45.1748 180.727 45.2363 180.545 45.2363C180.354 45.2363 180.194 45.1748 180.066 45.0518C179.939 44.9242 179.875 44.7327 179.875 44.4775ZM186.677 54.1367C185.569 54.1367 184.694 53.7995 184.052 53.125C183.414 52.4505 183.095 51.514 183.095 50.3154C183.095 49.1077 183.391 48.1484 183.983 47.4375C184.58 46.7266 185.38 46.3711 186.383 46.3711C187.322 46.3711 188.064 46.681 188.611 47.3008C189.158 47.916 189.432 48.7295 189.432 49.7412V50.459H184.271C184.293 51.3385 184.514 52.0062 184.934 52.4619C185.357 52.9176 185.952 53.1455 186.718 53.1455C187.524 53.1455 188.322 52.9769 189.11 52.6396V53.6514C188.709 53.8245 188.329 53.9476 187.969 54.0205C187.613 54.098 187.183 54.1367 186.677 54.1367ZM186.369 47.3213C185.768 47.3213 185.287 47.5173 184.927 47.9092C184.571 48.3011 184.362 48.8434 184.298 49.5361H188.215C188.215 48.8206 188.055 48.2738 187.736 47.8955C187.417 47.5127 186.962 47.3213 186.369 47.3213ZM194.791 46.3711C195.124 46.3711 195.422 46.3984 195.687 46.4531L195.529 47.5059C195.219 47.4375 194.946 47.4033 194.709 47.4033C194.103 47.4033 193.583 47.6494 193.15 48.1416C192.722 48.6338 192.508 49.2467 192.508 49.9805V54H191.373V46.5078H192.31L192.439 47.8955H192.494C192.772 47.4079 193.107 47.0319 193.499 46.7676C193.891 46.5033 194.322 46.3711 194.791 46.3711Z" fill="#B45054"/>
</svg>
