<svg width="230" height="118" viewBox="0 0 230 118" fill="none" xmlns="http://www.w3.org/2000/svg">
<line x1="114" y1="58" x2="114" y2="116" stroke="#D27984" stroke-width="2"/>
<circle cx="114.5" cy="114.5" r="3.5" fill="#B45054"/>
<rect x="1" y="1" width="228" height="68" rx="6" fill="#F9E6E9" stroke="#D27984" stroke-width="2"/>
<path d="M14.3594 29H12.5078V17.5781H18.9531V19.1562H14.3594V22.7266H18.6641V24.3125H14.3594V29ZM26.9219 29L26.6641 27.8672H26.5703C26.3151 28.2682 25.9505 28.5833 25.4766 28.8125C25.0078 29.0417 24.4714 29.1562 23.8672 29.1562C22.8203 29.1562 22.0391 28.8958 21.5234 28.375C21.0078 27.8542 20.75 27.0651 20.75 26.0078V20.3594H22.6016V25.6875C22.6016 26.349 22.737 26.8464 23.0078 27.1797C23.2786 27.5078 23.7031 27.6719 24.2812 27.6719C25.0521 27.6719 25.6172 27.4427 25.9766 26.9844C26.3411 26.5208 26.5234 25.7474 26.5234 24.6641V20.3594H28.3672V29H26.9219ZM32.8203 29H30.9844V16.8438H32.8203V29ZM37.2891 29H35.4531V16.8438H37.2891V29ZM38.6094 20.3594H40.6094L42.3672 25.2578C42.6328 25.9557 42.8099 26.612 42.8984 27.2266H42.9609C43.0078 26.9401 43.0938 26.5938 43.2188 26.1875C43.3438 25.776 44.0052 23.8333 45.2031 20.3594H47.1875L43.4922 30.1484C42.8203 31.9453 41.7005 32.8438 40.1328 32.8438C39.7266 32.8438 39.3307 32.7995 38.9453 32.7109V31.2578C39.2214 31.3203 39.5365 31.3516 39.8906 31.3516C40.776 31.3516 41.3984 30.8385 41.7578 29.8125L42.0781 29L38.6094 20.3594ZM57.0391 20.2031C57.4089 20.2031 57.7135 20.2292 57.9531 20.2812L57.7734 21.9922C57.513 21.9297 57.2422 21.8984 56.9609 21.8984C56.2266 21.8984 55.6302 22.138 55.1719 22.6172C54.7188 23.0964 54.4922 23.7188 54.4922 24.4844V29H52.6562V20.3594H54.0938L54.3359 21.8828H54.4297C54.7161 21.3672 55.0885 20.9583 55.5469 20.6562C56.0104 20.3542 56.5078 20.2031 57.0391 20.2031ZM63.3359 29.1562C61.9922 29.1562 60.9401 28.7656 60.1797 27.9844C59.4245 27.1979 59.0469 26.1172 59.0469 24.7422C59.0469 23.3307 59.3984 22.2214 60.1016 21.4141C60.8047 20.6068 61.7708 20.2031 63 20.2031C64.1406 20.2031 65.0417 20.5495 65.7031 21.2422C66.3646 21.9349 66.6953 22.888 66.6953 24.1016V25.0938H60.9375C60.9635 25.9323 61.1901 26.5781 61.6172 27.0312C62.0443 27.4792 62.6458 27.7031 63.4219 27.7031C63.9323 27.7031 64.4062 27.6562 64.8438 27.5625C65.2865 27.4635 65.7604 27.3021 66.2656 27.0781V28.5703C65.8177 28.7839 65.3646 28.9349 64.9062 29.0234C64.4479 29.112 63.9245 29.1562 63.3359 29.1562ZM63 21.5938C62.4167 21.5938 61.9479 21.7786 61.5938 22.1484C61.2448 22.5182 61.0365 23.0573 60.9688 23.7656H64.8906C64.8802 23.0521 64.7083 22.513 64.375 22.1484C64.0417 21.7786 63.5833 21.5938 63 21.5938ZM74.5859 26.5391C74.5859 27.3828 74.2786 28.0312 73.6641 28.4844C73.0495 28.9323 72.1693 29.1562 71.0234 29.1562C69.8724 29.1562 68.9479 28.9818 68.25 28.6328V27.0469C69.2656 27.5156 70.2109 27.75 71.0859 27.75C72.2161 27.75 72.7812 27.4089 72.7812 26.7266C72.7812 26.5078 72.7188 26.3255 72.5938 26.1797C72.4688 26.0339 72.263 25.8828 71.9766 25.7266C71.6901 25.5703 71.2917 25.3932 70.7812 25.1953C69.7865 24.8099 69.112 24.4245 68.7578 24.0391C68.4089 23.6536 68.2344 23.1536 68.2344 22.5391C68.2344 21.7995 68.5312 21.2266 69.125 20.8203C69.724 20.4089 70.5365 20.2031 71.5625 20.2031C72.5781 20.2031 73.5391 20.4089 74.4453 20.8203L73.8516 22.2031C72.9193 21.8177 72.1354 21.625 71.5 21.625C70.5312 21.625 70.0469 21.901 70.0469 22.4531C70.0469 22.724 70.1719 22.9531 70.4219 23.1406C70.6771 23.3281 71.2292 23.5859 72.0781 23.9141C72.7917 24.1901 73.3099 24.4427 73.6328 24.6719C73.9557 24.901 74.1953 25.1667 74.3516 25.4688C74.5078 25.7656 74.5859 26.1224 74.5859 26.5391ZM80.9609 29.1562C79.8672 29.1562 79.0182 28.763 78.4141 27.9766H78.3047C78.3776 28.7057 78.4141 29.1484 78.4141 29.3047V32.8438H76.5781V20.3594H78.0625C78.1042 20.5208 78.1901 20.9062 78.3203 21.5156H78.4141C78.987 20.6406 79.8464 20.2031 80.9922 20.2031C82.0703 20.2031 82.9089 20.5938 83.5078 21.375C84.112 22.1562 84.4141 23.2526 84.4141 24.6641C84.4141 26.0755 84.1068 27.1771 83.4922 27.9688C82.8828 28.7604 82.0391 29.1562 80.9609 29.1562ZM80.5156 21.7031C79.7865 21.7031 79.2526 21.9167 78.9141 22.3438C78.5807 22.7708 78.4141 23.4531 78.4141 24.3906V24.6641C78.4141 25.7161 78.5807 26.4792 78.9141 26.9531C79.2474 27.4219 79.7917 27.6562 80.5469 27.6562C81.1823 27.6562 81.6719 27.3958 82.0156 26.875C82.3594 26.3542 82.5312 25.612 82.5312 24.6484C82.5312 23.6797 82.3594 22.9479 82.0156 22.4531C81.6771 21.9531 81.1771 21.7031 80.5156 21.7031ZM94.2109 24.6641C94.2109 26.0755 93.849 27.1771 93.125 27.9688C92.401 28.7604 91.3932 29.1562 90.1016 29.1562C89.2943 29.1562 88.5807 28.974 87.9609 28.6094C87.3411 28.2448 86.8646 27.7214 86.5312 27.0391C86.1979 26.3568 86.0312 25.5651 86.0312 24.6641C86.0312 23.263 86.3906 22.1693 87.1094 21.3828C87.8281 20.5964 88.8411 20.2031 90.1484 20.2031C91.3984 20.2031 92.388 20.6068 93.1172 21.4141C93.8464 22.2161 94.2109 23.2995 94.2109 24.6641ZM87.9219 24.6641C87.9219 26.6589 88.6589 27.6562 90.1328 27.6562C91.5911 27.6562 92.3203 26.6589 92.3203 24.6641C92.3203 22.6901 91.5859 21.7031 90.1172 21.7031C89.3464 21.7031 88.7865 21.9583 88.4375 22.4688C88.0938 22.9792 87.9219 23.7109 87.9219 24.6641ZM103.93 29H102.086V23.6875C102.086 23.0208 101.951 22.5234 101.68 22.1953C101.414 21.8672 100.99 21.7031 100.406 21.7031C99.6302 21.7031 99.0625 21.9323 98.7031 22.3906C98.3438 22.849 98.1641 23.6172 98.1641 24.6953V29H96.3281V20.3594H97.7656L98.0234 21.4922H98.1172C98.3776 21.0807 98.7474 20.763 99.2266 20.5391C99.7057 20.3151 100.237 20.2031 100.82 20.2031C102.893 20.2031 103.93 21.2578 103.93 23.3672V29ZM112.289 26.5391C112.289 27.3828 111.982 28.0312 111.367 28.4844C110.753 28.9323 109.872 29.1562 108.727 29.1562C107.576 29.1562 106.651 28.9818 105.953 28.6328V27.0469C106.969 27.5156 107.914 27.75 108.789 27.75C109.919 27.75 110.484 27.4089 110.484 26.7266C110.484 26.5078 110.422 26.3255 110.297 26.1797C110.172 26.0339 109.966 25.8828 109.68 25.7266C109.393 25.5703 108.995 25.3932 108.484 25.1953C107.49 24.8099 106.815 24.4245 106.461 24.0391C106.112 23.6536 105.938 23.1536 105.938 22.5391C105.938 21.7995 106.234 21.2266 106.828 20.8203C107.427 20.4089 108.24 20.2031 109.266 20.2031C110.281 20.2031 111.242 20.4089 112.148 20.8203L111.555 22.2031C110.622 21.8177 109.839 21.625 109.203 21.625C108.234 21.625 107.75 21.901 107.75 22.4531C107.75 22.724 107.875 22.9531 108.125 23.1406C108.38 23.3281 108.932 23.5859 109.781 23.9141C110.495 24.1901 111.013 24.4427 111.336 24.6719C111.659 24.901 111.898 25.1667 112.055 25.4688C112.211 25.7656 112.289 26.1224 112.289 26.5391ZM116.117 29H114.281V20.3594H116.117V29ZM114.172 18.0703C114.172 17.7422 114.26 17.4896 114.438 17.3125C114.62 17.1354 114.878 17.0469 115.211 17.0469C115.534 17.0469 115.784 17.1354 115.961 17.3125C116.143 17.4896 116.234 17.7422 116.234 18.0703C116.234 18.3828 116.143 18.6302 115.961 18.8125C115.784 18.9896 115.534 19.0781 115.211 19.0781C114.878 19.0781 114.62 18.9896 114.438 18.8125C114.26 18.6302 114.172 18.3828 114.172 18.0703ZM120.719 29L117.438 20.3594H119.375L121.133 25.3828C121.435 26.2266 121.617 26.9089 121.68 27.4297H121.742C121.789 27.0547 121.971 26.3724 122.289 25.3828L124.047 20.3594H126L122.703 29H120.719ZM131.086 29.1562C129.742 29.1562 128.69 28.7656 127.93 27.9844C127.174 27.1979 126.797 26.1172 126.797 24.7422C126.797 23.3307 127.148 22.2214 127.852 21.4141C128.555 20.6068 129.521 20.2031 130.75 20.2031C131.891 20.2031 132.792 20.5495 133.453 21.2422C134.115 21.9349 134.445 22.888 134.445 24.1016V25.0938H128.688C128.714 25.9323 128.94 26.5781 129.367 27.0312C129.794 27.4792 130.396 27.7031 131.172 27.7031C131.682 27.7031 132.156 27.6562 132.594 27.5625C133.036 27.4635 133.51 27.3021 134.016 27.0781V28.5703C133.568 28.7839 133.115 28.9349 132.656 29.0234C132.198 29.112 131.674 29.1562 131.086 29.1562ZM130.75 21.5938C130.167 21.5938 129.698 21.7786 129.344 22.1484C128.995 22.5182 128.786 23.0573 128.719 23.7656H132.641C132.63 23.0521 132.458 22.513 132.125 22.1484C131.792 21.7786 131.333 21.5938 130.75 21.5938ZM143.602 29.1562C142.523 29.1562 141.682 28.7656 141.078 27.9844C140.474 27.2031 140.172 26.1068 140.172 24.6953C140.172 23.2786 140.477 22.1771 141.086 21.3906C141.701 20.599 142.549 20.2031 143.633 20.2031C144.768 20.2031 145.633 20.6224 146.227 21.4609H146.32C146.232 20.8411 146.188 20.3516 146.188 19.9922V16.8438H148.031V29H146.594L146.273 27.8672H146.188C145.599 28.7266 144.737 29.1562 143.602 29.1562ZM144.094 27.6719C144.849 27.6719 145.398 27.4609 145.742 27.0391C146.086 26.612 146.263 25.9219 146.273 24.9688V24.7109C146.273 23.6224 146.096 22.849 145.742 22.3906C145.388 21.9323 144.833 21.7031 144.078 21.7031C143.432 21.7031 142.935 21.9661 142.586 22.4922C142.237 23.013 142.062 23.7578 142.062 24.7266C142.062 25.6849 142.232 26.4167 142.57 26.9219C142.909 27.4219 143.417 27.6719 144.094 27.6719ZM154.43 29.1562C153.086 29.1562 152.034 28.7656 151.273 27.9844C150.518 27.1979 150.141 26.1172 150.141 24.7422C150.141 23.3307 150.492 22.2214 151.195 21.4141C151.898 20.6068 152.865 20.2031 154.094 20.2031C155.234 20.2031 156.135 20.5495 156.797 21.2422C157.458 21.9349 157.789 22.888 157.789 24.1016V25.0938H152.031C152.057 25.9323 152.284 26.5781 152.711 27.0312C153.138 27.4792 153.74 27.7031 154.516 27.7031C155.026 27.7031 155.5 27.6562 155.938 27.5625C156.38 27.4635 156.854 27.3021 157.359 27.0781V28.5703C156.911 28.7839 156.458 28.9349 156 29.0234C155.542 29.112 155.018 29.1562 154.43 29.1562ZM154.094 21.5938C153.51 21.5938 153.042 21.7786 152.688 22.1484C152.339 22.5182 152.13 23.0573 152.062 23.7656H155.984C155.974 23.0521 155.802 22.513 155.469 22.1484C155.135 21.7786 154.677 21.5938 154.094 21.5938ZM165.68 26.5391C165.68 27.3828 165.372 28.0312 164.758 28.4844C164.143 28.9323 163.263 29.1562 162.117 29.1562C160.966 29.1562 160.042 28.9818 159.344 28.6328V27.0469C160.359 27.5156 161.305 27.75 162.18 27.75C163.31 27.75 163.875 27.4089 163.875 26.7266C163.875 26.5078 163.812 26.3255 163.688 26.1797C163.562 26.0339 163.357 25.8828 163.07 25.7266C162.784 25.5703 162.385 25.3932 161.875 25.1953C160.88 24.8099 160.206 24.4245 159.852 24.0391C159.503 23.6536 159.328 23.1536 159.328 22.5391C159.328 21.7995 159.625 21.2266 160.219 20.8203C160.818 20.4089 161.63 20.2031 162.656 20.2031C163.672 20.2031 164.633 20.4089 165.539 20.8203L164.945 22.2031C164.013 21.8177 163.229 21.625 162.594 21.625C161.625 21.625 161.141 21.901 161.141 22.4531C161.141 22.724 161.266 22.9531 161.516 23.1406C161.771 23.3281 162.323 23.5859 163.172 23.9141C163.885 24.1901 164.404 24.4427 164.727 24.6719C165.049 24.901 165.289 25.1667 165.445 25.4688C165.602 25.7656 165.68 26.1224 165.68 26.5391ZM169.508 29H167.672V20.3594H169.508V29ZM167.562 18.0703C167.562 17.7422 167.651 17.4896 167.828 17.3125C168.01 17.1354 168.268 17.0469 168.602 17.0469C168.924 17.0469 169.174 17.1354 169.352 17.3125C169.534 17.4896 169.625 17.7422 169.625 18.0703C169.625 18.3828 169.534 18.6302 169.352 18.8125C169.174 18.9896 168.924 19.0781 168.602 19.0781C168.268 19.0781 168.01 18.9896 167.828 18.8125C167.651 18.6302 167.562 18.3828 167.562 18.0703ZM179.438 20.3594V21.3672L177.961 21.6406C178.096 21.8229 178.208 22.0469 178.297 22.3125C178.385 22.5781 178.43 22.8594 178.43 23.1562C178.43 24.0469 178.122 24.7474 177.508 25.2578C176.893 25.7682 176.047 26.0234 174.969 26.0234C174.693 26.0234 174.443 26.0026 174.219 25.9609C173.823 26.2057 173.625 26.4922 173.625 26.8203C173.625 27.0182 173.716 27.1667 173.898 27.2656C174.086 27.3646 174.427 27.4141 174.922 27.4141H176.43C177.383 27.4141 178.107 27.6172 178.602 28.0234C179.096 28.4297 179.344 29.0156 179.344 29.7812C179.344 30.7604 178.94 31.5156 178.133 32.0469C177.326 32.5781 176.159 32.8438 174.633 32.8438C173.456 32.8438 172.557 32.6354 171.938 32.2188C171.318 31.8021 171.008 31.2083 171.008 30.4375C171.008 29.9062 171.174 29.4583 171.508 29.0938C171.846 28.7344 172.318 28.4844 172.922 28.3438C172.677 28.2396 172.474 28.0729 172.312 27.8438C172.156 27.6094 172.078 27.3646 172.078 27.1094C172.078 26.7865 172.169 26.513 172.352 26.2891C172.534 26.0651 172.805 25.8438 173.164 25.625C172.716 25.4323 172.352 25.1198 172.07 24.6875C171.794 24.25 171.656 23.7396 171.656 23.1562C171.656 22.2188 171.951 21.4922 172.539 20.9766C173.133 20.4609 173.977 20.2031 175.07 20.2031C175.315 20.2031 175.57 20.2214 175.836 20.2578C176.107 20.2891 176.31 20.3229 176.445 20.3594H179.438ZM172.648 30.3438C172.648 30.7396 172.826 31.0443 173.18 31.2578C173.539 31.4714 174.042 31.5781 174.688 31.5781C175.688 31.5781 176.432 31.4349 176.922 31.1484C177.411 30.862 177.656 30.4818 177.656 30.0078C177.656 29.6328 177.521 29.3646 177.25 29.2031C176.984 29.0469 176.487 28.9688 175.758 28.9688H174.367C173.841 28.9688 173.422 29.0911 173.109 29.3359C172.802 29.5859 172.648 29.9219 172.648 30.3438ZM173.438 23.1562C173.438 23.6979 173.576 24.1146 173.852 24.4062C174.133 24.6979 174.534 24.8438 175.055 24.8438C176.117 24.8438 176.648 24.276 176.648 23.1406C176.648 22.5781 176.516 22.1458 176.25 21.8438C175.99 21.5365 175.591 21.3828 175.055 21.3828C174.523 21.3828 174.12 21.5339 173.844 21.8359C173.573 22.138 173.438 22.5781 173.438 23.1562ZM188.648 29H186.805V23.6875C186.805 23.0208 186.669 22.5234 186.398 22.1953C186.133 21.8672 185.708 21.7031 185.125 21.7031C184.349 21.7031 183.781 21.9323 183.422 22.3906C183.062 22.849 182.883 23.6172 182.883 24.6953V29H181.047V20.3594H182.484L182.742 21.4922H182.836C183.096 21.0807 183.466 20.763 183.945 20.5391C184.424 20.3151 184.956 20.2031 185.539 20.2031C187.612 20.2031 188.648 21.2578 188.648 23.3672V29Z" fill="#81363E"/>
<path d="M21.0967 54H19.9482L17.9316 47.3076C17.8359 47.0114 17.7288 46.6377 17.6104 46.1865C17.4919 45.7354 17.4303 45.4642 17.4258 45.373C17.3255 45.9746 17.166 46.6331 16.9473 47.3486L14.9922 54H13.8438L11.1846 44.0059H12.415L13.9941 50.1787C14.2129 51.0446 14.3724 51.8285 14.4727 52.5303C14.5957 51.6963 14.778 50.8805 15.0195 50.083L16.8105 44.0059H18.041L19.9209 50.1377C20.1396 50.8441 20.3242 51.6416 20.4746 52.5303C20.5612 51.8831 20.7253 51.0947 20.9668 50.165L22.5391 44.0059H23.7695L21.0967 54ZM31.6309 50.2471C31.6309 51.4684 31.3232 52.4232 30.708 53.1113C30.0928 53.7949 29.2428 54.1367 28.1582 54.1367C27.4883 54.1367 26.8936 53.9795 26.374 53.665C25.8545 53.3506 25.4535 52.8994 25.1709 52.3115C24.8883 51.7236 24.7471 51.0355 24.7471 50.2471C24.7471 49.0257 25.0524 48.0755 25.6631 47.3965C26.2738 46.7129 27.1214 46.3711 28.2061 46.3711C29.2542 46.3711 30.0859 46.7197 30.7012 47.417C31.321 48.1143 31.6309 49.0576 31.6309 50.2471ZM25.9229 50.2471C25.9229 51.2041 26.1143 51.9333 26.4971 52.4346C26.8799 52.9359 27.4427 53.1865 28.1855 53.1865C28.9284 53.1865 29.4912 52.9382 29.874 52.4414C30.2614 51.9401 30.4551 51.2087 30.4551 50.2471C30.4551 49.2946 30.2614 48.5723 29.874 48.0801C29.4912 47.5833 28.9238 47.335 28.1719 47.335C27.429 47.335 26.8685 47.5788 26.4902 48.0664C26.112 48.554 25.9229 49.2809 25.9229 50.2471ZM37.0449 46.3711C37.3776 46.3711 37.6761 46.3984 37.9404 46.4531L37.7832 47.5059C37.4733 47.4375 37.1999 47.4033 36.9629 47.4033C36.3568 47.4033 35.8372 47.6494 35.4043 48.1416C34.9759 48.6338 34.7617 49.2467 34.7617 49.9805V54H33.627V46.5078H34.5635L34.6934 47.8955H34.748C35.026 47.4079 35.361 47.0319 35.7529 46.7676C36.1449 46.5033 36.5755 46.3711 37.0449 46.3711ZM40.4629 50.165C40.6589 49.887 40.9574 49.5225 41.3584 49.0713L43.7783 46.5078H45.125L42.0898 49.7002L45.3369 54H43.9629L41.3174 50.459L40.4629 51.1973V54H39.3418V43.3633H40.4629V49.0029C40.4629 49.2536 40.4447 49.641 40.4082 50.165H40.4629ZM51.5303 51.9561C51.5303 52.6533 51.2705 53.1911 50.751 53.5693C50.2314 53.9476 49.5023 54.1367 48.5635 54.1367C47.57 54.1367 46.7952 53.9795 46.2393 53.665V52.6123C46.5993 52.7946 46.9844 52.9382 47.3945 53.043C47.8092 53.1478 48.208 53.2002 48.5908 53.2002C49.1833 53.2002 49.639 53.1068 49.958 52.9199C50.277 52.7285 50.4365 52.4391 50.4365 52.0518C50.4365 51.7601 50.3089 51.5117 50.0537 51.3066C49.8031 51.097 49.3109 50.8509 48.5771 50.5684C47.8799 50.3086 47.3831 50.083 47.0869 49.8916C46.7952 49.6956 46.5765 49.4746 46.4307 49.2285C46.2894 48.9824 46.2188 48.6885 46.2188 48.3467C46.2188 47.736 46.4671 47.2552 46.9639 46.9043C47.4606 46.5488 48.1419 46.3711 49.0078 46.3711C49.8145 46.3711 50.6029 46.5352 51.373 46.8633L50.9697 47.7861C50.2178 47.4762 49.5365 47.3213 48.9258 47.3213C48.388 47.3213 47.9824 47.4056 47.709 47.5742C47.4355 47.7428 47.2988 47.9753 47.2988 48.2715C47.2988 48.472 47.349 48.6429 47.4492 48.7842C47.554 48.9255 47.7204 49.0599 47.9482 49.1875C48.1761 49.3151 48.6136 49.4997 49.2607 49.7412C50.1494 50.0648 50.7487 50.3906 51.0586 50.7188C51.373 51.0469 51.5303 51.4593 51.5303 51.9561ZM60.3965 47.3896H58.4893V54H57.3545V47.3896H56.0146V46.877L57.3545 46.4668V46.0498C57.3545 44.2087 58.1589 43.2881 59.7676 43.2881C60.1641 43.2881 60.6289 43.3678 61.1621 43.5273L60.8682 44.4365C60.4307 44.2952 60.057 44.2246 59.7471 44.2246C59.3187 44.2246 59.002 44.3682 58.7969 44.6553C58.5918 44.9378 58.4893 45.3936 58.4893 46.0225V46.5078H60.3965V47.3896ZM62.8984 54H61.7637V43.3633H62.8984V54ZM69.9121 54L69.6865 52.9336H69.6318C69.2581 53.403 68.8844 53.722 68.5107 53.8906C68.1416 54.0547 67.679 54.1367 67.123 54.1367C66.3802 54.1367 65.7969 53.9453 65.373 53.5625C64.9538 53.1797 64.7441 52.6351 64.7441 51.9287C64.7441 50.4157 65.9541 49.6227 68.374 49.5498L69.6455 49.5088V49.0439C69.6455 48.4561 69.5179 48.0231 69.2627 47.7451C69.012 47.4626 68.6087 47.3213 68.0527 47.3213C67.4284 47.3213 66.722 47.5127 65.9336 47.8955L65.585 47.0273C65.9541 46.8268 66.3574 46.6696 66.7949 46.5557C67.237 46.4417 67.679 46.3848 68.1211 46.3848C69.0143 46.3848 69.6751 46.583 70.1035 46.9795C70.5365 47.376 70.7529 48.0117 70.7529 48.8867V54H69.9121ZM67.3486 53.2002C68.055 53.2002 68.6087 53.0065 69.0098 52.6191C69.4154 52.2318 69.6182 51.6895 69.6182 50.9922V50.3154L68.4834 50.3633C67.5811 50.3952 66.9294 50.5365 66.5283 50.7871C66.1318 51.0332 65.9336 51.4183 65.9336 51.9424C65.9336 52.3525 66.0566 52.6647 66.3027 52.8789C66.5534 53.0931 66.902 53.2002 67.3486 53.2002ZM79.2158 54L77.8418 49.6045C77.7552 49.3356 77.5934 48.7249 77.3564 47.7725H77.3018C77.1195 48.57 76.96 49.1852 76.8232 49.6182L75.4082 54H74.0957L72.0518 46.5078H73.2412C73.7243 48.39 74.0911 49.8232 74.3418 50.8076C74.597 51.792 74.7428 52.4551 74.7793 52.7969H74.834C74.8841 52.5371 74.9639 52.2021 75.0732 51.792C75.1872 51.3773 75.2852 51.0492 75.3672 50.8076L76.7412 46.5078H77.9717L79.3115 50.8076C79.5667 51.5915 79.7399 52.25 79.8311 52.7832H79.8857C79.904 52.6191 79.9518 52.3662 80.0293 52.0244C80.1113 51.6826 80.5876 49.8438 81.458 46.5078H82.6338L80.5625 54H79.2158ZM85.1289 54H83.9941V43.3633H85.1289V54ZM90.7002 54.1367C89.5928 54.1367 88.7178 53.7995 88.0752 53.125C87.4372 52.4505 87.1182 51.514 87.1182 50.3154C87.1182 49.1077 87.4144 48.1484 88.0068 47.4375C88.6038 46.7266 89.4036 46.3711 90.4062 46.3711C91.3451 46.3711 92.0879 46.681 92.6348 47.3008C93.1816 47.916 93.4551 48.7295 93.4551 49.7412V50.459H88.2939C88.3167 51.3385 88.5378 52.0062 88.957 52.4619C89.3809 52.9176 89.9756 53.1455 90.7412 53.1455C91.5479 53.1455 92.3454 52.9769 93.1338 52.6396V53.6514C92.7327 53.8245 92.3522 53.9476 91.9922 54.0205C91.6367 54.098 91.2061 54.1367 90.7002 54.1367ZM90.3926 47.3213C89.791 47.3213 89.3102 47.5173 88.9502 47.9092C88.5947 48.3011 88.3851 48.8434 88.3213 49.5361H92.2383C92.2383 48.8206 92.0788 48.2738 91.7598 47.8955C91.4408 47.5127 90.985 47.3213 90.3926 47.3213ZM100.229 51.9561C100.229 52.6533 99.9697 53.1911 99.4502 53.5693C98.9307 53.9476 98.2015 54.1367 97.2627 54.1367C96.2692 54.1367 95.4945 53.9795 94.9385 53.665V52.6123C95.2985 52.7946 95.6836 52.9382 96.0938 53.043C96.5085 53.1478 96.9072 53.2002 97.29 53.2002C97.8825 53.2002 98.3382 53.1068 98.6572 52.9199C98.9762 52.7285 99.1357 52.4391 99.1357 52.0518C99.1357 51.7601 99.0081 51.5117 98.7529 51.3066C98.5023 51.097 98.0101 50.8509 97.2764 50.5684C96.5791 50.3086 96.0824 50.083 95.7861 49.8916C95.4945 49.6956 95.2757 49.4746 95.1299 49.2285C94.9886 48.9824 94.918 48.6885 94.918 48.3467C94.918 47.736 95.1663 47.2552 95.6631 46.9043C96.1598 46.5488 96.8411 46.3711 97.707 46.3711C98.5137 46.3711 99.3021 46.5352 100.072 46.8633L99.6689 47.7861C98.917 47.4762 98.2357 47.3213 97.625 47.3213C97.0872 47.3213 96.6816 47.4056 96.4082 47.5742C96.1348 47.7428 95.998 47.9753 95.998 48.2715C95.998 48.472 96.0482 48.6429 96.1484 48.7842C96.2533 48.9255 96.4196 49.0599 96.6475 49.1875C96.8753 49.3151 97.3128 49.4997 97.96 49.7412C98.8486 50.0648 99.4479 50.3906 99.7578 50.7188C100.072 51.0469 100.229 51.4593 100.229 51.9561ZM106.915 51.9561C106.915 52.6533 106.655 53.1911 106.136 53.5693C105.616 53.9476 104.887 54.1367 103.948 54.1367C102.955 54.1367 102.18 53.9795 101.624 53.665V52.6123C101.984 52.7946 102.369 52.9382 102.779 53.043C103.194 53.1478 103.593 53.2002 103.976 53.2002C104.568 53.2002 105.024 53.1068 105.343 52.9199C105.662 52.7285 105.821 52.4391 105.821 52.0518C105.821 51.7601 105.694 51.5117 105.438 51.3066C105.188 51.097 104.696 50.8509 103.962 50.5684C103.265 50.3086 102.768 50.083 102.472 49.8916C102.18 49.6956 101.961 49.4746 101.815 49.2285C101.674 48.9824 101.604 48.6885 101.604 48.3467C101.604 47.736 101.852 47.2552 102.349 46.9043C102.845 46.5488 103.527 46.3711 104.393 46.3711C105.199 46.3711 105.988 46.5352 106.758 46.8633L106.354 47.7861C105.603 47.4762 104.921 47.3213 104.311 47.3213C103.773 47.3213 103.367 47.4056 103.094 47.5742C102.82 47.7428 102.684 47.9753 102.684 48.2715C102.684 48.472 102.734 48.6429 102.834 48.7842C102.939 48.9255 103.105 49.0599 103.333 49.1875C103.561 49.3151 103.998 49.4997 104.646 49.7412C105.534 50.0648 106.133 50.3906 106.443 50.7188C106.758 51.0469 106.915 51.4593 106.915 51.9561ZM109.902 54H108.768V43.3633H109.902V54ZM111.119 46.5078H112.336L113.977 50.7803C114.337 51.7555 114.56 52.4596 114.646 52.8926H114.701C114.76 52.6602 114.883 52.2637 115.07 51.7031C115.262 51.138 115.882 49.4062 116.93 46.5078H118.146L114.927 55.0391C114.608 55.8822 114.234 56.4792 113.806 56.8301C113.382 57.1855 112.86 57.3633 112.24 57.3633C111.894 57.3633 111.552 57.3245 111.215 57.2471V56.3379C111.465 56.3926 111.746 56.4199 112.056 56.4199C112.835 56.4199 113.391 55.9824 113.724 55.1074L114.141 54.041L111.119 46.5078ZM129.467 50.2471C129.467 51.4684 129.159 52.4232 128.544 53.1113C127.929 53.7949 127.079 54.1367 125.994 54.1367C125.324 54.1367 124.729 53.9795 124.21 53.665C123.69 53.3506 123.289 52.8994 123.007 52.3115C122.724 51.7236 122.583 51.0355 122.583 50.2471C122.583 49.0257 122.888 48.0755 123.499 47.3965C124.11 46.7129 124.957 46.3711 126.042 46.3711C127.09 46.3711 127.922 46.7197 128.537 47.417C129.157 48.1143 129.467 49.0576 129.467 50.2471ZM123.759 50.2471C123.759 51.2041 123.95 51.9333 124.333 52.4346C124.716 52.9359 125.279 53.1865 126.021 53.1865C126.764 53.1865 127.327 52.9382 127.71 52.4414C128.097 51.9401 128.291 51.2087 128.291 50.2471C128.291 49.2946 128.097 48.5723 127.71 48.0801C127.327 47.5833 126.76 47.335 126.008 47.335C125.265 47.335 124.704 47.5788 124.326 48.0664C123.948 48.554 123.759 49.2809 123.759 50.2471ZM136.59 54V49.1533C136.59 48.5426 136.451 48.0869 136.173 47.7861C135.895 47.4854 135.46 47.335 134.867 47.335C134.083 47.335 133.509 47.5469 133.145 47.9707C132.78 48.3945 132.598 49.0941 132.598 50.0693V54H131.463V46.5078H132.386L132.57 47.5332H132.625C132.857 47.1641 133.183 46.8792 133.603 46.6787C134.022 46.4736 134.489 46.3711 135.004 46.3711C135.906 46.3711 136.585 46.5898 137.041 47.0273C137.497 47.4603 137.725 48.1553 137.725 49.1123V54H136.59ZM148.307 54L148.081 52.9336H148.026C147.653 53.403 147.279 53.722 146.905 53.8906C146.536 54.0547 146.074 54.1367 145.518 54.1367C144.775 54.1367 144.191 53.9453 143.768 53.5625C143.348 53.1797 143.139 52.6351 143.139 51.9287C143.139 50.4157 144.349 49.6227 146.769 49.5498L148.04 49.5088V49.0439C148.04 48.4561 147.912 48.0231 147.657 47.7451C147.407 47.4626 147.003 47.3213 146.447 47.3213C145.823 47.3213 145.117 47.5127 144.328 47.8955L143.979 47.0273C144.349 46.8268 144.752 46.6696 145.189 46.5557C145.632 46.4417 146.074 46.3848 146.516 46.3848C147.409 46.3848 148.07 46.583 148.498 46.9795C148.931 47.376 149.147 48.0117 149.147 48.8867V54H148.307ZM145.743 53.2002C146.45 53.2002 147.003 53.0065 147.404 52.6191C147.81 52.2318 148.013 51.6895 148.013 50.9922V50.3154L146.878 50.3633C145.976 50.3952 145.324 50.5365 144.923 50.7871C144.526 51.0332 144.328 51.4183 144.328 51.9424C144.328 52.3525 144.451 52.6647 144.697 52.8789C144.948 53.0931 145.297 53.2002 145.743 53.2002ZM152.627 54H151.492V43.3633H152.627V54ZM156.168 54H155.033V43.3633H156.168V54ZM167.044 51.9561C167.044 52.6533 166.784 53.1911 166.265 53.5693C165.745 53.9476 165.016 54.1367 164.077 54.1367C163.084 54.1367 162.309 53.9795 161.753 53.665V52.6123C162.113 52.7946 162.498 52.9382 162.908 53.043C163.323 53.1478 163.722 53.2002 164.104 53.2002C164.697 53.2002 165.153 53.1068 165.472 52.9199C165.791 52.7285 165.95 52.4391 165.95 52.0518C165.95 51.7601 165.823 51.5117 165.567 51.3066C165.317 51.097 164.825 50.8509 164.091 50.5684C163.394 50.3086 162.897 50.083 162.601 49.8916C162.309 49.6956 162.09 49.4746 161.944 49.2285C161.803 48.9824 161.732 48.6885 161.732 48.3467C161.732 47.736 161.981 47.2552 162.478 46.9043C162.974 46.5488 163.656 46.3711 164.521 46.3711C165.328 46.3711 166.117 46.5352 166.887 46.8633L166.483 47.7861C165.731 47.4762 165.05 47.3213 164.439 47.3213C163.902 47.3213 163.496 47.4056 163.223 47.5742C162.949 47.7428 162.812 47.9753 162.812 48.2715C162.812 48.472 162.863 48.6429 162.963 48.7842C163.068 48.9255 163.234 49.0599 163.462 49.1875C163.69 49.3151 164.127 49.4997 164.774 49.7412C165.663 50.0648 166.262 50.3906 166.572 50.7188C166.887 51.0469 167.044 51.4593 167.044 51.9561ZM171.891 54.1367C170.806 54.1367 169.965 53.804 169.368 53.1387C168.776 52.4688 168.479 51.5231 168.479 50.3018C168.479 49.0485 168.78 48.0801 169.382 47.3965C169.988 46.7129 170.849 46.3711 171.966 46.3711C172.326 46.3711 172.686 46.4098 173.046 46.4873C173.406 46.5648 173.688 46.6559 173.894 46.7607L173.545 47.7246C173.294 47.6243 173.021 47.5423 172.725 47.4785C172.428 47.4102 172.166 47.376 171.938 47.376C170.416 47.376 169.655 48.3467 169.655 50.2881C169.655 51.2087 169.84 51.915 170.209 52.4072C170.583 52.8994 171.134 53.1455 171.863 53.1455C172.488 53.1455 173.128 53.0111 173.784 52.7422V53.7471C173.283 54.0068 172.652 54.1367 171.891 54.1367ZM178.986 46.3711C179.319 46.3711 179.618 46.3984 179.882 46.4531L179.725 47.5059C179.415 47.4375 179.141 47.4033 178.904 47.4033C178.298 47.4033 177.779 47.6494 177.346 48.1416C176.917 48.6338 176.703 49.2467 176.703 49.9805V54H175.568V46.5078H176.505L176.635 47.8955H176.689C176.967 47.4079 177.302 47.0319 177.694 46.7676C178.086 46.5033 178.517 46.3711 178.986 46.3711ZM184.448 54.1367C183.341 54.1367 182.466 53.7995 181.823 53.125C181.185 52.4505 180.866 51.514 180.866 50.3154C180.866 49.1077 181.162 48.1484 181.755 47.4375C182.352 46.7266 183.152 46.3711 184.154 46.3711C185.093 46.3711 185.836 46.681 186.383 47.3008C186.93 47.916 187.203 48.7295 187.203 49.7412V50.459H182.042C182.065 51.3385 182.286 52.0062 182.705 52.4619C183.129 52.9176 183.724 53.1455 184.489 53.1455C185.296 53.1455 186.093 52.9769 186.882 52.6396V53.6514C186.481 53.8245 186.1 53.9476 185.74 54.0205C185.385 54.098 184.954 54.1367 184.448 54.1367ZM184.141 47.3213C183.539 47.3213 183.058 47.5173 182.698 47.9092C182.343 48.3011 182.133 48.8434 182.069 49.5361H185.986C185.986 48.8206 185.827 48.2738 185.508 47.8955C185.189 47.5127 184.733 47.3213 184.141 47.3213ZM192.31 54.1367C191.202 54.1367 190.327 53.7995 189.685 53.125C189.047 52.4505 188.728 51.514 188.728 50.3154C188.728 49.1077 189.024 48.1484 189.616 47.4375C190.213 46.7266 191.013 46.3711 192.016 46.3711C192.954 46.3711 193.697 46.681 194.244 47.3008C194.791 47.916 195.064 48.7295 195.064 49.7412V50.459H189.903C189.926 51.3385 190.147 52.0062 190.566 52.4619C190.99 52.9176 191.585 53.1455 192.351 53.1455C193.157 53.1455 193.955 52.9769 194.743 52.6396V53.6514C194.342 53.8245 193.962 53.9476 193.602 54.0205C193.246 54.098 192.815 54.1367 192.31 54.1367ZM192.002 47.3213C191.4 47.3213 190.92 47.5173 190.56 47.9092C190.204 48.3011 189.994 48.8434 189.931 49.5361H193.848C193.848 48.8206 193.688 48.2738 193.369 47.8955C193.05 47.5127 192.594 47.3213 192.002 47.3213ZM202.133 54V49.1533C202.133 48.5426 201.994 48.0869 201.716 47.7861C201.438 47.4854 201.003 47.335 200.41 47.335C199.626 47.335 199.052 47.5469 198.688 47.9707C198.323 48.3945 198.141 49.0941 198.141 50.0693V54H197.006V46.5078H197.929L198.113 47.5332H198.168C198.4 47.1641 198.726 46.8792 199.146 46.6787C199.565 46.4736 200.032 46.3711 200.547 46.3711C201.449 46.3711 202.128 46.5898 202.584 47.0273C203.04 47.4603 203.268 48.1553 203.268 49.1123V54H202.133ZM210.438 51.9561C210.438 52.6533 210.179 53.1911 209.659 53.5693C209.14 53.9476 208.41 54.1367 207.472 54.1367C206.478 54.1367 205.703 53.9795 205.147 53.665V52.6123C205.507 52.7946 205.893 52.9382 206.303 53.043C206.717 53.1478 207.116 53.2002 207.499 53.2002C208.091 53.2002 208.547 53.1068 208.866 52.9199C209.185 52.7285 209.345 52.4391 209.345 52.0518C209.345 51.7601 209.217 51.5117 208.962 51.3066C208.711 51.097 208.219 50.8509 207.485 50.5684C206.788 50.3086 206.291 50.083 205.995 49.8916C205.703 49.6956 205.485 49.4746 205.339 49.2285C205.198 48.9824 205.127 48.6885 205.127 48.3467C205.127 47.736 205.375 47.2552 205.872 46.9043C206.369 46.5488 207.05 46.3711 207.916 46.3711C208.723 46.3711 209.511 46.5352 210.281 46.8633L209.878 47.7861C209.126 47.4762 208.445 47.3213 207.834 47.3213C207.296 47.3213 206.891 47.4056 206.617 47.5742C206.344 47.7428 206.207 47.9753 206.207 48.2715C206.207 48.472 206.257 48.6429 206.357 48.7842C206.462 48.9255 206.629 49.0599 206.856 49.1875C207.084 49.3151 207.522 49.4997 208.169 49.7412C209.058 50.0648 209.657 50.3906 209.967 50.7188C210.281 51.0469 210.438 51.4593 210.438 51.9561Z" fill="#B45054"/>
</svg>
