<svg width="86" height="104" viewBox="0 0 86 104" fill="none" xmlns="http://www.w3.org/2000/svg">
<circle cx="4" cy="4" r="4" fill="#F2EDEE"/>
<circle cx="17" cy="4" r="4" fill="#F2EDEE"/>
<circle cx="30" cy="4" r="4" fill="#F2EDEE"/>
<circle cx="43" cy="4" r="4" fill="#F2EDEE"/>
<circle cx="56" cy="4" r="4" fill="#F2EDEE"/>
<circle cx="69" cy="4" r="4" fill="#F2EDEE"/>
<circle cx="4" cy="20" r="4" fill="#F2EDEE"/>
<circle cx="17" cy="20" r="4" fill="#F2EDEE"/>
<circle cx="30" cy="20" r="4" fill="#F2EDEE"/>
<circle cx="43" cy="20" r="4" fill="#F2EDEE"/>
<circle cx="56" cy="20" r="4" fill="#F2EDEE"/>
<circle cx="4" cy="36" r="4" fill="#F2EDEE"/>
<circle cx="17" cy="36" r="4" fill="#F2EDEE"/>
<circle cx="30" cy="36" r="4" fill="#F2EDEE"/>
<circle cx="43" cy="36" r="4" fill="#F2EDEE"/>
<circle cx="4" cy="52" r="4" fill="#F2EDEE"/>
<circle cx="17" cy="52" r="4" fill="#F2EDEE"/>
<circle cx="30" cy="52" r="4" fill="#F2EDEE"/>
<circle cx="4" cy="68" r="4" fill="#F2EDEE"/>
<circle cx="17" cy="68" r="4" fill="#F2EDEE"/>
<circle cx="4" cy="84" r="4" fill="#F2EDEE"/>
<circle cx="4" cy="100" r="4" fill="#F2EDEE"/>
<circle cx="17" cy="84" r="4" fill="#F2EDEE"/>
<circle cx="30" cy="68" r="4" fill="#F2EDEE"/>
<circle cx="43" cy="52" r="4" fill="#F2EDEE"/>
<circle cx="56" cy="36" r="4" fill="#F2EDEE"/>
<circle cx="69" cy="20" r="4" fill="#F2EDEE"/>
<circle cx="82" cy="4" r="4" fill="#F2EDEE"/>
</svg>
